 <svg
        className="fogot-password-right-section-svg"
        viewBox="0 0 725 623"
        fill="none"
        xmlns="http://www.w3.org/2000/svg"
      >
        <path
          d="M362.634 622.666C562.754 622.666 724.984 607.431 724.984 588.639C724.984 569.846 562.754 554.612 362.634 554.612C162.513 554.612 0.283691 569.846 0.283691 588.639C0.283691 607.431 162.513 622.666 362.634 622.666Z"
          fill="#0C0319"
        />
        <path
          d="M287.155 410.283H169.896L162.78 328.166H280.038L287.155 410.283Z"
          fill="#B8B8B8"
        />
        <path
          d="M293.23 410.283H175.971L168.855 328.166H286.114L293.23 410.283Z"
          fill="#F0F0F0"
        />
        <path
          d="M192.006 392.659L188.086 345.808H270.079L273.999 392.659H192.006Z"
          fill="white"
        />
        <path
          d="M313.521 410.283H299.764V563.444H313.521V410.283Z"
          fill="#B8B8B8"
        />
        <path
          d="M317.866 410.283H308.312V563.443H317.866V410.283Z"
          fill="#F0F0F0"
        />
        <path d="M184.695 427.2H317.865V410.3H184.695V427.2Z" fill="#F0F0F0" />
        <path
          d="M189.392 427.2H175.636V563.461H189.392V427.2Z"
          fill="#B8B8B8"
        />
        <path
          d="M193.737 427.201H184.183V563.461H193.737V427.201Z"
          fill="#F0F0F0"
        />
        <path
          d="M91.4701 427.2H77.7134V563.461H91.4701V427.2Z"
          fill="#B8B8B8"
        />
        <path
          d="M95.8144 427.201H86.2606V563.461H95.8144V427.201Z"
          fill="#F0F0F0"
        />
        <path
          d="M226.458 427.201H212.702V563.461H226.458V427.201Z"
          fill="#B8B8B8"
        />
        <path
          d="M230.786 427.2H221.232V563.461H230.786V427.2Z"
          fill="#F0F0F0"
        />
        <path
          d="M184.695 410.283H77.7136V427.183H184.695V410.283Z"
          fill="#B8B8B8"
        />
        <path
          d="M583.622 28.3966H169.808V258.782H583.622V28.3966Z"
          fill="#E0E0E0"
        />
        <path
          d="M606.351 28.3967H171.892V258.782H606.351V28.3967Z"
          fill="#F5F5F5"
        />
        <path
          d="M599.251 251.682V35.4949L178.991 35.4949V251.682L599.251 251.682Z"
          fill="white"
        />
        <path
          d="M349.158 251.683L428.502 35.4957H297.557L218.213 251.683H349.158Z"
          fill="#DCD9D9"
        />
        <path
          d="M475.194 251.683L554.538 35.4957H455.751L376.407 251.683H475.194Z"
          fill="#DCD9D9"
        />
        <path
          d="M381.76 343.559H346.582V563.596H381.76V343.559Z"
          fill="#B8B8B8"
        />
        <path
          d="M154.743 372.527V376.801H152.024L149.763 410.283H116.493L114.25 376.801H111.513V372.527H154.743Z"
          fill="#B8B8B8"
        />
        <path
          d="M127.196 334.63C127.761 326.418 140.864 311.354 172.386 318.206C195.167 323.151 203.644 311.354 203.644 311.354C203.644 311.354 201.524 344.678 167.265 354.708C134.718 364.227 126.189 349.057 127.196 334.63Z"
          fill="#B8B8B8"
        />
        <path
          d="M134.383 385.1C134.561 385.102 134.736 385.065 134.898 384.992C135.06 384.918 135.203 384.811 135.319 384.676C137.597 381.974 135.725 375.511 133.147 366.558C129.827 355.079 125.695 340.775 129.191 330.391C131.133 324.923 133.397 319.574 135.973 314.374C140.917 303.92 145.191 294.949 141.624 285.448C141.569 285.297 141.484 285.158 141.375 285.04C141.265 284.923 141.134 284.828 140.987 284.762C140.841 284.696 140.682 284.661 140.522 284.657C140.361 284.653 140.201 284.682 140.052 284.741C139.753 284.86 139.512 285.09 139.38 285.384C139.248 285.677 139.236 286.011 139.345 286.313C142.56 294.772 138.674 302.966 133.783 313.332C131.16 318.615 128.86 324.052 126.896 329.614C123.152 340.722 127.39 355.415 130.816 367.229C132.829 374.187 134.895 381.356 133.465 383.122C133.351 383.244 133.264 383.389 133.21 383.546C133.155 383.703 133.133 383.87 133.147 384.036C133.16 384.202 133.208 384.364 133.287 384.511C133.366 384.657 133.475 384.786 133.606 384.888C133.832 385.049 134.107 385.124 134.383 385.1Z"
          fill="#B8B8B8"
        />
        <path
          opacity="0.7"
          d="M382.514 525.758H131.749L118.028 122.468H368.793L382.514 525.758Z"
          fill="#407BFF"
        />
        <path
          opacity="0.7"
          d="M382.514 525.758H131.749L118.028 122.468H368.793L382.514 525.758Z"
          fill="white"
        />
        <path
          d="M395.034 513.237H144.269L130.53 109.948H381.295L395.034 513.237Z"
          fill="white"
        />
        <path
          opacity="0.3"
          d="M394.865 513.4H144.1L130.361 110.11H381.126L394.865 513.4Z"
          fill="white"
        />
        <path
          d="M310.995 275.859C337.845 248.546 336.703 203.884 308.444 176.105C280.185 148.325 235.51 147.947 208.661 175.26C181.811 202.573 182.953 247.234 211.212 275.014C239.471 302.794 284.145 303.172 310.995 275.859Z"
          fill="#110524"
          fillOpacity="0.7"
        />
        <path
          d="M318.075 225.617C318.431 235.227 316.334 244.768 311.982 253.343C307.28 262.577 300.099 270.32 291.244 275.704C282.389 281.087 272.209 283.899 261.847 283.823C251.24 283.771 240.833 280.932 231.668 275.592C222.504 270.252 214.903 262.598 209.628 253.396C204.721 244.954 201.979 235.429 201.646 225.67C201.32 218.103 202.536 210.549 205.22 203.467C207.904 196.384 212 189.922 217.259 184.471C222.518 179.02 228.83 174.696 235.812 171.76C242.794 168.825 250.3 167.339 257.873 167.394C273.467 167.504 288.42 173.613 299.63 184.454C310.839 195.295 317.444 210.036 318.075 225.617Z"
          fill="white"
        />
        <path
          opacity="0.6"
          d="M311.984 253.396C307.281 262.63 300.1 270.373 291.245 275.757C282.39 281.14 272.211 283.952 261.848 283.876C251.236 283.818 240.826 280.972 231.661 275.622C222.496 270.273 214.898 262.608 209.629 253.396C224.552 243.218 242.213 237.812 260.276 237.891C278.655 237.91 296.627 243.299 311.984 253.396Z"
          fill="#0C0319"
        />
        <path
          opacity="0.6"
          d="M277.969 224.123C287.842 214.08 287.422 197.658 277.031 187.443C266.64 177.228 250.213 177.089 240.34 187.132C230.467 197.176 230.887 213.598 241.278 223.813C251.669 234.028 268.097 234.167 277.969 224.123Z"
          fill="#0C0319"
        />
        <path
          d="M344.652 367.193H184.692L183.615 335.406H343.574L344.652 367.193Z"
          fill="#EEA0DF"
        />
        <path
          d="M346.595 424.004H186.617L185.54 392.217H345.517L346.595 424.004Z"
          fill="white"
        />
        <path
          d="M284.856 396.596L246.305 401.894C245.937 401.938 245.581 402.058 245.261 402.246C244.941 402.433 244.662 402.685 244.444 402.985C244.225 403.285 244.07 403.627 243.99 403.989C243.909 404.351 243.904 404.726 243.974 405.091L249.042 430.926C249.208 431.683 249.653 432.35 250.287 432.795C250.922 433.24 251.7 433.43 252.468 433.328L291.019 428.03C291.386 427.989 291.741 427.871 292.061 427.685C292.38 427.499 292.657 427.249 292.875 426.95C293.092 426.651 293.245 426.31 293.324 425.949C293.403 425.588 293.406 425.214 293.332 424.852L288.282 399.016C288.123 398.254 287.682 397.58 287.046 397.131C286.41 396.682 285.627 396.491 284.856 396.596ZM273.783 422.75L266.72 423.704L266.031 415.368C265.305 415.051 264.665 414.565 264.164 413.951C263.663 413.337 263.316 412.612 263.152 411.837C263.02 411.235 263.015 410.612 263.14 410.009C263.265 409.405 263.515 408.835 263.875 408.335C264.235 407.835 264.697 407.416 265.229 407.107C265.762 406.797 266.354 406.604 266.967 406.539C268.221 406.377 269.49 406.692 270.524 407.422C271.557 408.151 272.279 409.241 272.547 410.477C272.701 411.219 272.656 411.989 272.417 412.708C272.179 413.427 271.754 414.071 271.187 414.574L273.783 422.75Z"
          fill="#37474F"
        />
        <path
          d="M281.041 395.201C280.359 395.288 279.67 395.117 279.108 394.722C278.546 394.326 278.152 393.735 278.004 393.065L277.509 390.539C276.804 387.096 274.875 384.026 272.079 381.896C269.284 379.766 265.811 378.721 262.304 378.955C260.533 379.056 258.805 379.536 257.236 380.365C255.667 381.193 254.295 382.349 253.213 383.755C252.131 385.16 251.364 386.782 250.964 388.51C250.564 390.239 250.541 392.033 250.896 393.771L251.461 396.685C251.524 397.007 251.52 397.339 251.449 397.66C251.377 397.981 251.24 398.284 251.046 398.549C250.852 398.814 250.605 399.037 250.321 399.202C250.037 399.368 249.722 399.472 249.395 399.51C248.712 399.605 248.019 399.438 247.455 399.041C246.891 398.644 246.499 398.048 246.358 397.373L245.881 394.901C245.396 392.608 245.38 390.241 245.834 387.941C246.288 385.642 247.202 383.458 248.522 381.521C249.842 379.584 251.54 377.935 253.514 376.671C255.488 375.408 257.697 374.556 260.009 374.169C265.02 373.322 270.165 374.439 274.375 377.287C278.584 380.135 281.535 384.495 282.613 389.462L283.178 392.376C283.244 392.704 283.239 393.043 283.165 393.369C283.09 393.695 282.947 394.002 282.745 394.269C282.543 394.536 282.287 394.758 281.993 394.918C281.699 395.079 281.375 395.175 281.041 395.201Z"
          fill="#37474F"
        />
        <path
          d="M320.193 468.524H216.055L215.367 447.827H319.487L320.193 468.524Z"
          fill="#37474F"
        />
        <path
          d="M269.951 351.3C269.983 352.055 269.86 352.808 269.591 353.514C269.323 354.22 268.913 354.864 268.388 355.408C267.863 355.951 267.233 356.382 266.537 356.674C265.84 356.967 265.091 357.115 264.336 357.11C262.779 357.098 261.285 356.488 260.165 355.407C259.044 354.326 258.382 352.855 258.314 351.3C258.283 350.545 258.405 349.791 258.674 349.085C258.943 348.379 259.352 347.735 259.877 347.192C260.402 346.648 261.032 346.217 261.729 345.925C262.425 345.632 263.174 345.484 263.929 345.49C265.488 345.497 266.983 346.106 268.105 347.188C269.226 348.27 269.888 349.743 269.951 351.3Z"
          fill="white"
        />
        <path
          d="M244.93 351.3C244.961 352.055 244.839 352.808 244.57 353.514C244.301 354.22 243.892 354.865 243.367 355.408C242.842 355.951 242.212 356.382 241.515 356.675C240.819 356.967 240.07 357.115 239.314 357.11C237.756 357.102 236.261 356.494 235.139 355.412C234.017 354.33 233.356 352.857 233.293 351.3C233.261 350.545 233.384 349.792 233.653 349.085C233.921 348.379 234.331 347.735 234.856 347.192C235.381 346.649 236.011 346.218 236.707 345.925C237.404 345.632 238.153 345.484 238.908 345.49C240.465 345.502 241.958 346.112 243.079 347.193C244.2 348.274 244.862 349.744 244.93 351.3Z"
          fill="white"
        />
        <path
          d="M219.923 351.3C219.954 352.055 219.831 352.808 219.563 353.514C219.294 354.22 218.885 354.864 218.359 355.408C217.834 355.951 217.204 356.382 216.508 356.674C215.811 356.967 215.062 357.115 214.307 357.11C212.75 357.102 211.257 356.493 210.138 355.41C209.019 354.328 208.362 352.855 208.303 351.3C208.272 350.545 208.394 349.791 208.663 349.085C208.931 348.379 209.341 347.735 209.866 347.192C210.391 346.648 211.021 346.217 211.718 345.925C212.414 345.632 213.163 345.484 213.918 345.49C215.475 345.498 216.969 346.106 218.087 347.189C219.206 348.271 219.863 349.744 219.923 351.3Z"
          fill="white"
        />
        <path
          d="M294.974 351.3C295.005 352.055 294.883 352.808 294.614 353.514C294.345 354.22 293.936 354.865 293.411 355.408C292.886 355.951 292.256 356.382 291.559 356.675C290.863 356.967 290.114 357.115 289.359 357.11C287.802 357.102 286.308 356.493 285.19 355.411C284.071 354.328 283.413 352.855 283.354 351.3C283.323 350.545 283.446 349.792 283.714 349.086C283.983 348.379 284.392 347.735 284.917 347.192C285.443 346.649 286.072 346.218 286.769 345.925C287.466 345.633 288.214 345.484 288.97 345.49C290.527 345.498 292.02 346.107 293.139 347.189C294.258 348.272 294.915 349.744 294.974 351.3Z"
          fill="white"
        />
        <path
          d="M320.015 351.3C320.047 352.055 319.924 352.808 319.655 353.514C319.387 354.22 318.977 354.865 318.452 355.408C317.927 355.951 317.297 356.382 316.601 356.675C315.904 356.967 315.155 357.115 314.4 357.11C312.841 357.102 311.346 356.494 310.224 355.412C309.103 354.33 308.441 352.857 308.378 351.3C308.347 350.545 308.469 349.792 308.738 349.086C309.007 348.379 309.416 347.735 309.941 347.192C310.466 346.649 311.096 346.218 311.793 345.925C312.489 345.633 313.238 345.485 313.994 345.49C315.551 345.502 317.044 346.112 318.164 347.193C319.285 348.274 319.948 349.744 320.015 351.3Z"
          fill="white"
        />
        <path
          d="M513.503 161.475C515.851 165.236 517.811 168.857 519.825 172.618C521.838 176.38 523.657 180.159 525.44 184.026C529.08 191.857 532.091 199.965 534.447 208.273C534.765 209.314 534.994 210.427 535.259 211.504L535.647 213.147L535.842 213.959L536.071 215.301C536.478 218.34 536.292 221.428 535.524 224.396C534.306 229.018 532.458 233.451 530.032 237.57C525.667 245.059 520.394 251.981 514.332 258.178L506.933 252.492C510.671 245.632 513.997 238.556 516.893 231.301C518.163 228.099 519.064 224.764 519.577 221.358C519.741 220.317 519.693 219.254 519.436 218.233L518.73 216.078C518.447 215.177 518.182 214.312 517.847 213.412C515.172 206.122 512.064 198.998 508.54 192.079C505.008 185.015 501.212 177.951 497.415 171.205L513.503 161.475Z"
          fill="#FF8B7B"
        />
        <path
          d="M508.82 250.019L500.714 254.258L510.021 265.171C510.021 265.171 515.848 261.233 516.113 255.229L508.82 250.019Z"
          fill="#FF8B7B"
        />
        <path
          d="M489.803 261.056L499.78 268.985L510.023 265.242L500.699 254.328L489.803 261.056Z"
          fill="#FF8B7B"
        />
        <path
          d="M455.684 103.693C455.49 104.682 454.801 105.37 454.165 105.229C453.53 105.088 453.159 104.205 453.371 103.216C453.583 102.227 454.254 101.556 454.889 101.68C455.525 101.803 455.896 102.722 455.684 103.693Z"
          fill="#263238"
        />
        <path
          d="M454.889 105.388C453.114 108.152 450.963 110.654 448.496 112.823C449.077 113.427 449.782 113.897 450.563 114.202C451.343 114.507 452.181 114.639 453.017 114.589L454.889 105.388Z"
          fill="#FF5652"
        />
        <path
          d="M451.693 140.036V128.451L467.022 130.305C467.022 130.305 466.757 140.265 458.192 143.179L451.693 140.036Z"
          fill="#FF8B7B"
        />
        <path
          d="M456.125 120.116L466.915 123.224L467.109 130.306L451.781 128.452L456.125 120.116Z"
          fill="#FF8B7B"
        />
        <path
          opacity="0.2"
          d="M466.915 123.225L456.126 120.046L454.024 124.072C454.132 127.265 455.128 130.364 456.9 133.021C458.672 135.679 461.149 137.79 464.055 139.118C465.908 136.529 466.992 133.468 467.18 130.288L466.915 123.225Z"
          fill="black"
        />
        <path
          d="M460.4 98.9781C460.472 98.9784 460.544 98.9646 460.61 98.9373C460.677 98.91 460.738 98.8699 460.789 98.8191C460.844 98.7649 460.888 98.7003 460.917 98.6291C460.947 98.5578 460.963 98.4814 460.963 98.4041C460.963 98.3269 460.947 98.2504 460.917 98.1792C460.888 98.108 460.844 98.0433 460.789 97.9891C460.171 97.2901 459.395 96.749 458.526 96.411C457.657 96.0731 456.719 95.9481 455.791 96.0466C455.714 96.0573 455.64 96.0834 455.574 96.1231C455.507 96.1628 455.449 96.2155 455.403 96.278C455.357 96.3406 455.324 96.4117 455.305 96.4871C455.287 96.5626 455.284 96.641 455.297 96.7176C455.327 96.8712 455.416 97.0069 455.544 97.096C455.673 97.185 455.831 97.2204 455.986 97.1945C456.721 97.1329 457.46 97.2447 458.144 97.5207C458.828 97.7967 459.437 98.2294 459.924 98.7838C459.985 98.8477 460.059 98.8979 460.142 98.9314C460.224 98.9648 460.312 98.9807 460.4 98.9781Z"
          fill="#263238"
        />
        <path
          d="M482.951 121.564C481.185 130.659 480.09 143.25 486.483 149.307C486.483 149.307 484.011 158.525 467.058 158.525C448.48 158.525 458.122 150.437 458.122 150.437C465.839 148.036 465.769 139.241 464.003 132.195L482.951 121.564Z"
          fill="#FF8B7B"
        />
        <path
          d="M489.926 155.365C491.586 153.016 491.515 145.634 489.749 144.328C486.906 142.208 474.721 141.732 458.297 145.511C460.063 152.575 456.267 156.424 456.267 156.424L489.926 155.365Z"
          fill="#F264AC"
        />
        <path
          d="M545.128 574.618C544.629 574.801 544.098 574.882 543.567 574.854C543.036 574.827 542.516 574.693 542.038 574.459C541.849 574.29 541.718 574.066 541.664 573.819C541.61 573.571 541.636 573.313 541.738 573.081C541.796 572.892 541.894 572.717 542.025 572.568C542.156 572.419 542.317 572.299 542.497 572.216C544.263 571.421 548.042 572.993 548.201 573.064C548.255 573.083 548.302 573.119 548.334 573.167C548.365 573.214 548.381 573.271 548.378 573.329C548.38 573.383 548.366 573.438 548.338 573.485C548.309 573.532 548.268 573.569 548.219 573.593C547.227 574.042 546.191 574.385 545.128 574.618ZM543.097 572.64L542.762 572.746C542.653 572.792 542.555 572.862 542.475 572.951C542.396 573.039 542.337 573.144 542.303 573.258C542.144 573.788 542.303 573.947 542.409 574C543.08 574.582 545.552 574 547.3 573.346C545.969 572.801 544.534 572.56 543.097 572.64Z"
          fill="#F264AC"
        />
        <path
          d="M548.149 573.629H548.008C546.595 573.223 543.593 571.086 543.558 569.674C543.56 569.453 543.636 569.239 543.773 569.066C543.911 568.893 544.102 568.771 544.317 568.72C544.75 568.586 545.218 568.624 545.624 568.826C547.284 569.674 548.326 573.117 548.361 573.258C548.392 573.303 548.408 573.355 548.408 573.409C548.408 573.462 548.392 573.514 548.361 573.559L548.149 573.629ZM544.617 569.232H544.494C544.123 569.356 544.123 569.532 544.123 569.621C544.123 570.451 546.136 572.111 547.655 572.799C547.276 571.42 546.488 570.189 545.394 569.267C545.156 569.157 544.883 569.144 544.635 569.232H544.617Z"
          fill="#F264AC"
        />
        <path
          d="M453.459 576.701C451.852 576.701 450.316 576.49 449.804 575.766C449.674 575.579 449.604 575.357 449.604 575.13C449.604 574.902 449.674 574.681 449.804 574.494C449.902 574.319 450.036 574.168 450.198 574.049C450.359 573.93 450.544 573.847 450.74 573.805C452.806 573.24 457.15 575.713 457.327 575.819C457.381 575.847 457.425 575.89 457.453 575.944C457.481 575.998 457.493 576.059 457.486 576.119C457.47 576.178 457.438 576.232 457.395 576.275C457.352 576.318 457.298 576.35 457.239 576.366C455.991 576.588 454.727 576.7 453.459 576.701ZM451.482 574.3C451.294 574.269 451.104 574.269 450.916 574.3C450.797 574.324 450.684 574.373 450.583 574.443C450.483 574.513 450.398 574.602 450.334 574.706C450.122 575.077 450.21 575.253 450.334 575.359C450.916 576.154 454.042 576.189 456.356 575.854C454.835 575.024 453.168 574.497 451.446 574.3H451.482Z"
          fill="#F264AC"
        />
        <path
          d="M457.168 576.366H456.991C455.49 575.678 452.523 572.993 452.753 571.598C452.753 571.263 453.035 570.857 453.848 570.768C454.139 570.737 454.434 570.766 454.714 570.854C454.994 570.942 455.252 571.087 455.473 571.28C456.607 572.632 457.287 574.306 457.415 576.066C457.417 576.117 457.407 576.168 457.386 576.214C457.364 576.26 457.332 576.3 457.291 576.331C457.253 576.351 457.211 576.363 457.168 576.366ZM454.13 571.333H453.954C453.424 571.333 453.406 571.598 453.389 571.669C453.247 572.517 455.261 574.618 456.797 575.536C456.659 574.125 456.085 572.792 455.155 571.722C454.875 571.466 454.509 571.327 454.13 571.333Z"
          fill="#F264AC"
        />
        <path
          d="M470.82 576.066H458.405L457.169 547.299H469.583L470.82 576.066Z"
          fill="#FF8B7B"
        />
        <path
          d="M561.996 570.327L549.864 572.958L537.661 546.151L549.811 543.537L561.996 570.327Z"
          fill="#FF8B7B"
        />
        <path
          d="M548.698 571.74L562.332 568.773C562.575 568.723 562.828 568.756 563.049 568.869C563.27 568.981 563.447 569.165 563.55 569.391L568.283 579.651C568.409 579.901 568.474 580.178 568.472 580.458C568.47 580.738 568.402 581.014 568.272 581.262C568.143 581.511 567.956 581.725 567.728 581.887C567.499 582.049 567.236 582.154 566.958 582.194C562.19 583.148 559.894 583.377 553.82 584.667C550.129 585.461 541.794 587.492 536.708 588.605C531.622 589.717 529.856 584.808 531.834 583.907C540.663 579.828 544.46 576.243 546.879 572.905C547.315 572.299 547.966 571.883 548.698 571.74Z"
          fill="#263238"
        />
        <path
          d="M458.493 574.636H472.056C472.303 574.634 472.543 574.718 472.736 574.872C472.929 575.026 473.063 575.242 473.116 575.484L475.57 586.521C475.639 586.786 475.645 587.064 475.588 587.333C475.53 587.601 475.411 587.852 475.24 588.066C475.068 588.28 474.849 588.452 474.6 588.567C474.351 588.682 474.079 588.737 473.804 588.728C468.895 588.728 461.831 588.357 455.686 588.357C448.498 588.357 442.282 588.763 433.841 588.763C428.755 588.763 427.324 583.607 429.461 583.13C439.192 581.011 447.121 580.781 455.509 575.607C456.395 575.014 457.428 574.678 458.493 574.636Z"
          fill="#263238"
        />
        <path
          d="M508.699 152.115C520.336 154.782 529.89 184.503 529.89 184.503L506.509 202.321C500.467 195.87 496.207 187.959 494.147 179.364C490.156 163.788 496.796 149.378 508.699 152.115Z"
          fill="#F264AC"
        />
        <path
          opacity="0.4"
          d="M508.699 152.115C520.336 154.782 529.89 184.503 529.89 184.503L506.509 202.321C500.467 195.87 496.207 187.959 494.147 179.364C490.156 163.788 496.796 149.378 508.699 152.115Z"
          fill="#F169B2"
        />
        <path
          d="M447.474 187.575C444.578 190.719 441.682 193.509 438.644 196.405C437.161 197.835 435.625 199.23 434.071 200.608L431.722 202.656L431.139 203.168C430.856 203.416 430.503 203.716 430.132 203.998C429.088 204.814 427.942 205.49 426.724 206.012C425.364 206.58 423.907 206.88 422.433 206.895C419.727 206.921 417.12 205.88 415.175 203.998C413.881 202.734 412.933 201.159 412.42 199.425C412.16 198.567 411.989 197.686 411.908 196.793C411.815 195.742 411.815 194.684 411.908 193.632C411.908 192.785 412.102 192.061 412.243 191.372C412.728 188.964 413.413 186.601 414.292 184.308C415.097 182.139 416.011 180.011 417.029 177.933C418.159 175.69 419.237 174.048 420.314 172.176C424.702 164.966 429.719 158.158 435.307 151.832C440.821 145.569 446.898 139.823 453.461 134.667L459.959 141.36C455.403 147.47 450.918 154.022 446.768 160.468C442.63 166.873 438.857 173.505 435.466 180.335C434.706 181.995 433.7 183.867 433.223 185.209C432.588 186.767 432.04 188.359 431.581 189.977C431.134 191.433 430.797 192.92 430.574 194.427C430.561 194.662 430.561 194.898 430.574 195.133C430.574 195.257 430.574 195.345 430.574 194.957C430.543 194.568 430.472 194.183 430.362 193.809C429.963 192.561 429.259 191.432 428.314 190.524C426.732 189.004 424.626 188.151 422.433 188.14C421.458 188.128 420.491 188.315 419.59 188.688C418.724 189.059 418.707 189.165 418.707 189.112L419.396 188.493L421.515 186.551L425.735 182.595C428.525 179.964 431.333 177.156 433.982 174.56L447.474 187.575Z"
          fill="#FF8B7B"
        />
        <path
          opacity="0.2"
          d="M498.72 173.978C505.042 180.229 507.109 191.637 507.55 201.527L506.526 202.321C500.489 195.867 496.23 187.957 494.164 179.364C493.935 178.428 493.723 177.51 493.564 176.591L498.72 173.978Z"
          fill="black"
        />
        <path
          d="M435.129 164.565C432.586 177.986 430.997 205.553 438.379 260.121H504.814C505.273 249.914 498.863 200.167 508.699 152.115C501.35 150.704 493.917 149.766 486.448 149.307C477.037 148.759 467.603 148.759 458.193 149.307C455.085 149.59 452.03 150.049 449.363 150.526C445.85 151.154 442.609 152.831 440.068 155.337C437.527 157.844 435.805 161.061 435.129 164.565Z"
          fill="#F264AC"
        />
        <path
          opacity="0.4"
          d="M435.129 164.565C432.586 177.986 430.997 205.553 438.379 260.121H504.814C505.273 249.914 498.863 200.167 508.699 152.115C501.35 150.704 493.917 149.766 486.448 149.307C477.037 148.759 467.603 148.759 458.193 149.307C455.085 149.59 452.03 150.049 449.363 150.526C445.85 151.154 442.609 152.831 440.068 155.337C437.527 157.844 435.805 161.061 435.129 164.565Z"
          fill="#EC2089"
        />
        <path
          opacity="0.2"
          d="M445.301 184.397L433.292 181.536C432.921 188.794 432.886 197.818 433.416 208.961C438.961 202.657 446.007 192.856 445.301 184.397Z"
          fill="black"
        />
        <path
          opacity="0.2"
          d="M457.169 547.317L457.805 562.133H470.237L469.601 547.317H457.169Z"
          fill="black"
        />
        <path
          opacity="0.2"
          d="M549.811 543.537L537.661 546.168L543.948 559.978L556.098 557.347L549.811 543.537Z"
          fill="black"
        />
        <path
          d="M488.867 108.267C485.67 120.187 484.399 127.304 477.052 132.266C465.998 139.701 452.241 131.153 451.817 118.545C451.429 107.172 456.709 89.6183 469.477 87.2167C472.292 86.6698 475.201 86.8526 477.927 87.7477C480.652 88.6427 483.103 90.2202 485.047 92.33C486.99 94.4398 488.361 97.0119 489.03 99.8014C489.699 102.591 489.642 105.505 488.867 108.267Z"
          fill="#FF8B7B"
        />
        <path
          d="M460.983 108.726C460.382 107.137 457.645 94.828 460.224 91.6316C462.802 88.4352 492.205 90.731 496.549 95.0046C503.772 102.068 498.756 108.443 490.863 116.62C484.929 122.765 484.7 129.688 481.697 130.747C476.4 132.513 468.312 130.853 466.687 125.255C465.062 119.657 460.983 108.726 460.983 108.726Z"
          fill="#263238"
        />
        <path
          d="M492.982 81.018C482.598 76.5855 463.119 81.4948 452.594 78.9519C452.46 82.8655 453.747 86.6954 456.218 89.7338C458.688 92.7722 462.175 94.8137 466.033 95.4811C474.764 97.1448 483.635 97.9609 492.522 97.9182C504.072 97.459 501.811 84.7265 492.982 81.018Z"
          fill="#263238"
        />
        <path
          d="M494.624 95.3225C498.413 95.6949 502.229 94.9587 505.608 93.2033C507.55 97.9714 496.866 99.2605 494.624 95.3225Z"
          fill="#263238"
        />
        <path
          d="M466.634 109.22C466.404 112.279 465.161 115.175 463.102 117.449C460.4 120.434 457.575 118.579 457.08 114.942C456.656 111.675 457.539 106.112 460.859 104.54C464.179 102.968 466.864 105.529 466.634 109.22Z"
          fill="#FF8B7B"
        />
        <path
          d="M461.936 260.12C461.936 260.12 476.064 355.04 483.781 390.606C492.24 429.545 537.695 558.371 537.695 558.371L559.929 553.568C559.929 553.568 528.142 448.565 521.078 394.121C515.603 352.303 504.849 260.103 504.849 260.103L461.936 260.12Z"
          fill="#263238"
        />
        <path
          d="M532.361 550.937L536.511 558.972L561.535 553.568L559.415 546.045L532.361 550.937Z"
          fill="#263238"
        />
        <path
          opacity="0.3"
          d="M470.853 293.938C487.153 297.135 485.422 357.919 483.462 389.176C478.765 367.084 471.878 324.56 467.18 294.38C468.318 293.818 469.614 293.662 470.853 293.938Z"
          fill="black"
        />
        <path
          d="M438.379 260.12C438.379 260.12 436.613 352.992 438.008 390.801C439.421 430.199 453.177 559.201 453.177 559.201H474.227C474.227 559.201 474.987 432.495 475.993 393.803C477.018 351.614 482.121 260.05 482.121 260.05L438.379 260.12Z"
          fill="#263238"
        />
        <path
          d="M449.134 550.937C449.028 550.937 450.317 559.678 450.317 559.678H475.906L476.612 551.89L449.134 550.937Z"
          fill="#263238"
        />
        <path
          d="M461.159 168.644C467.128 184.697 432.127 203.592 432.127 203.592L416.975 184.167C416.975 184.167 427.094 164.053 439.491 154.976C454.802 143.744 456.638 156.424 461.159 168.644Z"
          fill="#F264AC"
        />
        <path
          opacity="0.4"
          d="M461.159 168.644C467.128 184.697 432.127 203.592 432.127 203.592L416.975 184.167C416.975 184.167 427.094 164.053 439.491 154.976C454.802 143.744 456.638 156.424 461.159 168.644Z"
          fill="#F169B2"
        />
        <path
          d="M615.46 81.2336C650.659 81.2336 679.193 63.0488 679.193 40.6168C679.193 18.1847 650.659 -1.52588e-05 615.46 -1.52588e-05C580.261 -1.52588e-05 551.727 18.1847 551.727 40.6168C551.727 63.0488 580.261 81.2336 615.46 81.2336Z"
          fill="#0C0319"
        />
        <path
          d="M592.535 61.0664C588.333 61.0557 584.27 59.5616 581.062 56.8478C577.854 54.1339 575.707 50.3746 575 46.2325C574.278 41.74 575.28 37.1408 577.804 33.3554C580.329 29.57 584.19 26.878 588.615 25.8181C592.235 24.9841 596.025 25.3055 599.452 26.7373C602.88 28.1691 605.772 30.6392 607.723 33.8002L648.64 25.3413C650.214 25.002 651.859 25.2678 653.246 26.0859C654.633 26.9039 655.662 28.2142 656.127 29.7562C656.341 30.5664 656.388 31.4117 656.264 32.2405C656.141 33.0694 655.849 33.8643 655.408 34.5767C654.967 35.2891 654.385 35.904 653.698 36.3838C653.011 36.8636 652.233 37.1983 651.412 37.3674L650.353 37.5793C650.196 37.61 650.049 37.675 649.92 37.7697C649.792 37.8644 649.686 37.9863 649.611 38.1268C649.546 38.271 649.512 38.4276 649.512 38.5859C649.512 38.7443 649.546 38.9008 649.611 39.0451L650.335 40.917C650.58 41.5207 650.604 42.1914 650.404 42.8114C650.204 43.4314 649.792 43.9612 649.24 44.3076C648.807 44.5815 648.442 44.949 648.17 45.3829C647.898 45.8169 647.726 46.3064 647.668 46.8152C647.619 47.3983 647.385 47.9505 647.001 48.3918C646.617 48.8331 646.102 49.1407 645.532 49.2699L644.702 49.4288C644.128 49.5424 643.533 49.468 643.005 49.2167C642.477 48.9654 642.044 48.5506 641.77 48.0337C641.412 47.4082 640.865 46.9117 640.207 46.6151C639.55 46.3184 638.816 46.2366 638.11 46.3814C637.404 46.5262 636.761 46.8902 636.273 47.4215C635.786 47.9528 635.479 48.6243 635.395 49.3405C635.35 49.9221 635.119 50.4739 634.738 50.9155C634.357 51.357 633.845 51.6653 633.276 51.7952L632.446 51.9718C631.873 52.0769 631.282 51.9966 630.758 51.7425C630.234 51.4884 629.804 51.0739 629.532 50.559C629.266 50.119 628.907 49.7425 628.479 49.4558C628.052 49.169 627.568 48.979 627.06 48.899C626.418 48.7887 625.835 48.4589 625.41 47.966C624.985 47.4732 624.744 46.8479 624.729 46.1971V44.2016C624.725 44.0429 624.684 43.8871 624.611 43.7464C624.537 43.6056 624.433 43.4834 624.305 43.3893C624.185 43.2873 624.042 43.2149 623.889 43.1781C623.735 43.1413 623.575 43.1411 623.422 43.1774L610.195 45.8616C609.656 49.4869 608.009 52.8568 605.48 55.5093C602.951 58.1619 599.663 59.9672 596.067 60.6779C594.907 60.9296 593.723 61.0598 592.535 61.0664ZM589.004 27.5134C584.992 28.4453 581.485 30.8656 579.19 34.2848C576.895 37.7041 575.985 41.8672 576.642 45.9323C577.005 48.0566 577.792 50.0861 578.956 51.9001C580.119 53.7141 581.636 55.2755 583.415 56.4914C585.195 57.7073 587.201 58.5529 589.313 58.9779C591.426 59.4028 593.603 59.3984 595.714 58.9649C599.035 58.2806 602.055 56.5621 604.339 54.0558C606.623 51.5495 608.055 48.3843 608.429 45.014V44.3782L622.698 41.4291C623.105 41.3401 623.528 41.3431 623.934 41.4378C624.34 41.5325 624.72 41.7165 625.047 41.9765C625.373 42.2321 625.64 42.5555 625.829 42.9245C626.018 43.2935 626.125 43.6991 626.142 44.1133V46.1088C626.141 46.3491 626.223 46.5823 626.374 46.7689C626.525 46.9556 626.736 47.0842 626.971 47.1331C627.743 47.2437 628.48 47.5286 629.126 47.9661C629.771 48.4036 630.309 48.9823 630.698 49.6584C630.791 49.849 630.942 50.0057 631.129 50.107C631.315 50.2082 631.529 50.2489 631.74 50.2235L632.57 50.0469C632.772 49.985 632.951 49.8617 633.08 49.6941C633.21 49.5264 633.285 49.3227 633.294 49.111C633.421 48.0262 633.887 47.0093 634.626 46.2049C635.365 45.4005 636.339 44.8496 637.409 44.6305C638.478 44.4114 639.59 44.5353 640.586 44.9846C641.581 45.434 642.41 46.1858 642.953 47.1331C643.042 47.3225 643.19 47.4781 643.375 47.5768C643.559 47.6754 643.771 47.7118 643.978 47.6805L644.825 47.5216C645.031 47.4645 645.212 47.3425 645.343 47.1739C645.473 47.0052 645.546 46.7989 645.549 46.5857C645.639 45.8134 645.904 45.0718 646.323 44.417C646.742 43.7622 647.305 43.2115 647.969 42.8065C648.163 42.6662 648.305 42.4648 648.373 42.2345C648.44 42.0042 648.428 41.758 648.339 41.535L647.615 39.6631C647.466 39.2761 647.402 38.8611 647.429 38.4469C647.456 38.0328 647.572 37.6294 647.771 37.2648C647.969 36.9003 648.244 36.5832 648.577 36.3356C648.91 36.088 649.293 35.9158 649.699 35.831L650.776 35.6191C651.363 35.502 651.919 35.2641 652.408 34.9206C652.898 34.577 653.31 34.1353 653.62 33.6236C653.94 33.1168 654.152 32.5495 654.243 31.957C654.334 31.3645 654.303 30.7596 654.149 30.18C653.798 29.0734 653.044 28.1386 652.037 27.5601C651.031 26.9815 649.844 26.801 648.71 27.0543L606.557 35.7604L606.239 35.2129C604.554 32.269 601.975 29.9377 598.876 28.5567C595.778 27.1757 592.32 26.8165 589.004 27.5311V27.5134ZM592.535 54.5148C590.026 54.5055 587.591 53.66 585.616 52.112C583.641 50.5641 582.239 48.402 581.63 45.9676C581.021 43.5331 581.241 40.9653 582.256 38.67C583.27 36.3746 585.02 34.4828 587.23 33.2936C589.439 32.1044 591.982 31.6857 594.457 32.1036C596.931 32.5215 599.195 33.7523 600.892 35.6012C602.589 37.4502 603.62 39.8119 603.824 42.3129C604.028 44.814 603.393 47.3117 602.019 49.4112C601.202 50.6549 600.149 51.7254 598.919 52.5618C597.689 53.3981 596.306 53.9837 594.849 54.2852C594.088 54.4453 593.313 54.5281 592.535 54.5324V54.5148ZM592.535 33.6589C591.877 33.6627 591.221 33.7277 590.575 33.8532C588.176 34.4436 586.1 35.9403 584.781 38.0292C583.462 40.1181 583.003 42.6367 583.501 45.0564C583.999 47.476 585.415 49.6087 587.452 51.0068C589.489 52.4048 591.988 52.9596 594.425 52.5546C596.277 52.1776 597.976 51.2586 599.305 49.9144C600.634 48.5702 601.533 46.8613 601.889 45.0049C602.245 43.1484 602.041 41.2281 601.303 39.4877C600.565 37.7474 599.327 36.2657 597.745 35.2306C596.201 34.2076 594.388 33.6667 592.535 33.6766V33.6589Z"
          fill="white"
        />
        <path
          opacity="0.6"
          d="M563.594 105.056C575.161 105.056 584.538 99.0788 584.538 91.7055C584.538 84.3322 575.161 78.3549 563.594 78.3549C552.027 78.3549 542.65 84.3322 542.65 91.7055C542.65 99.0788 552.027 105.056 563.594 105.056Z"
          fill="#0C0319"
        />
        <path
          opacity="0.3"
          d="M530.272 110.513C535.022 110.513 538.872 108.062 538.872 105.038C538.872 102.015 535.022 99.564 530.272 99.564C525.522 99.564 521.672 102.015 521.672 105.038C521.672 108.062 525.522 110.513 530.272 110.513Z"
          fill="#0C0319"
        />
      </svg>