<svg className='right-section-svg' viewBox="0 0 881 657" fill="none" xmlns="http://www.w3.org/2000/svg">
        <path d="M362.39 614.601H396.203V615.041H362.39V614.601Z" fill="#EBEBEB" />
        <path d="M728.147 617.561H788.566V618.001H728.147V617.561Z" fill="#EBEBEB" />
        <path d="M602.604 617.561H712.465V618.001H602.604V617.561Z" fill="#EBEBEB" />
        <path d="M484.303 624.997H549.162V625.437H484.303V624.997Z" fill="#EBEBEB" />
        <path d="M497.21 521H809.758C812.208 520.995 814.556 519.898 816.288 517.949C818.021 516 818.996 513.358 819 510.602V16.3073C818.975 13.5668 817.99 10.948 816.26 9.0186C814.53 7.0892 812.194 6.00464 809.758 6H497.21C494.778 6.00948 492.448 7.09674 490.724 9.02613C489 10.9555 488.021 13.5716 488 16.3073V510.602C488 513.353 488.969 515.993 490.696 517.942C492.422 519.891 494.764 520.99 497.21 521ZM809.758 6.36422C812.1 6.36903 814.346 7.41814 816.002 9.28179C817.659 11.1454 818.591 13.6717 818.595 16.3073V510.602C818.591 513.237 817.659 515.764 816.002 517.627C814.346 519.491 812.1 520.54 809.758 520.545H497.21C494.867 520.54 492.622 519.491 490.966 517.627C489.309 515.764 488.377 513.237 488.372 510.602V16.3073C488.377 13.6717 489.309 11.1454 490.966 9.28179C492.622 7.41814 494.867 6.36903 497.21 6.36422H809.758Z" fill="#0C0319" stroke="black" strokeWidth="2" />
        <path d="M116.265 521H430.702C433.167 520.995 435.529 519.898 437.272 517.949C439.015 516 439.996 513.358 440 510.602V16.3073C439.974 13.5668 438.984 10.948 437.243 9.0186C435.503 7.0892 433.153 6.00464 430.702 6H116.265C113.819 6.00948 111.475 7.09674 109.74 9.02613C108.006 10.9555 107.021 13.5716 107 16.3073V510.602C107 513.353 107.975 515.993 109.712 517.942C111.449 519.891 113.805 520.99 116.265 521ZM430.702 6.36422C433.059 6.36903 435.318 7.41814 436.984 9.28179C438.651 11.1454 439.589 13.6717 439.593 16.3073V510.602C439.589 513.237 438.651 515.764 436.984 517.627C435.318 519.491 433.059 520.54 430.702 520.545H116.265C113.909 520.54 111.65 519.491 109.983 517.627C108.317 515.764 107.379 513.237 107.375 510.602V16.3073C107.379 13.6717 108.317 11.1454 109.983 9.28179C111.65 7.41814 113.909 6.36903 116.265 6.36422H430.702Z" fill="#0C0319" stroke="black" strokeWidth="2" />
        <path d="M767.665 336.821L311.113 336.821L311.113 60.575L767.665 60.575V336.821Z" fill="#E6E6E6" />
        <path d="M774.787 336.821L314.2 336.821L314.2 60.5749L774.787 60.5749V336.821Z" fill="#F5F5F5" />
        <path d="M327.012 322.99V74.3716L762.014 74.3716V322.99H327.012Z" fill="#FAFAFA" />
        <path d="M361.421 322.99L455.072 74.3892H494.505L400.855 322.99H361.421Z" fill="white" />
        <path d="M412.026 322.99L505.694 74.389H532.847L439.179 322.99H412.026Z" fill="white" />
        <path d="M577.494 322.99L671.162 74.389H698.315L604.664 322.99H577.494Z" fill="white" />
        <path d="M652.468 323.007V74.389H667.727V323.007H652.468Z" fill="#E6E6E6" />
        <path d="M411.057 323.007V74.389H426.316V323.007H411.057Z" fill="#E6E6E6" />
        <path d="M655.235 331.764V64.1167H674.511V331.764H655.235Z" fill="#F5F5F5" />
        <path d="M413.808 331.747V64.099H433.085V331.747H413.808Z" fill="#F5F5F5" />
        <path d="M760.638 323.007V74.389H761.994V323.007H760.638Z" fill="#E6E6E6" />
        <path d="M780.107 46.3206L297.266 46.3206C296.322 46.3206 295.557 45.5553 295.557 44.6114V44.5057C295.557 43.5618 296.322 42.7966 297.266 42.7966L780.107 42.7966C781.051 42.7966 781.816 43.5618 781.816 44.5057V44.6114C781.816 45.5553 781.051 46.3206 780.107 46.3206Z" fill="#E6E6E6" />
        <path d="M311.117 49.492C310.53 49.4873 309.968 49.252 309.553 48.8366C309.137 48.4213 308.902 47.8592 308.897 47.2718V41.8625C308.897 41.2721 309.131 40.7055 309.546 40.2864C309.962 39.8672 310.527 39.6294 311.117 39.6248C311.41 39.6247 311.7 39.6827 311.971 39.7954C312.242 39.9081 312.487 40.0732 312.693 40.2812C312.9 40.4893 313.063 40.7361 313.173 41.0075C313.284 41.2789 313.34 41.5695 313.337 41.8625V47.2718C313.337 47.8607 313.104 48.4254 312.687 48.8417C312.271 49.2581 311.706 49.492 311.117 49.492Z" fill="#E6E6E6" />
        <path d="M755.299 49.4921C754.71 49.4921 754.145 49.2582 753.729 48.8418C753.312 48.4255 753.078 47.8608 753.078 47.272V41.8626C753.076 41.5696 753.132 41.279 753.242 41.0076C753.353 40.7362 753.516 40.4894 753.722 40.2814C753.929 40.0733 754.174 39.9082 754.445 39.7955C754.715 39.6829 755.006 39.6249 755.299 39.6249C755.889 39.6295 756.454 39.8673 756.87 40.2865C757.285 40.7057 757.519 41.2722 757.519 41.8626V47.272C757.514 47.8594 757.279 48.4214 756.863 48.8367C756.448 49.2521 755.886 49.4875 755.299 49.4921Z" fill="#E6E6E6" />
        <path opacity="0.6" d="M779.65 241.673L319.293 241.673V44.5585L779.65 44.5585V241.673Z" fill="#EBEBEB" />
        <path d="M237.501 375.744H362.85V379.479H237.501V375.744Z" fill="#E0E0E0" />
        <path d="M237.501 375.744H362.85L350.797 303.977H225.449L237.501 375.744Z" fill="#E0E0E0" />
        <path d="M239.826 375.744H365.175L353.122 303.978H227.774L239.826 375.744Z" fill="#EBEBEB" />
        <path d="M360.417 370.106L350.163 309.088C350.1 308.713 349.906 308.372 349.616 308.127C349.325 307.882 348.957 307.747 348.577 307.748H234.047C233.812 307.745 233.58 307.793 233.367 307.89C233.154 307.986 232.964 308.129 232.813 308.308C232.661 308.486 232.551 308.696 232.49 308.923C232.429 309.149 232.419 309.386 232.461 309.616L242.716 370.634C242.778 371.009 242.972 371.35 243.263 371.595C243.553 371.84 243.921 371.974 244.302 371.973H358.832C359.066 371.977 359.298 371.929 359.511 371.832C359.725 371.736 359.914 371.593 360.066 371.414C360.217 371.236 360.327 371.026 360.388 370.799C360.449 370.573 360.459 370.336 360.417 370.106Z" fill="#FAFAFA" />
        <path d="M265.868 375.744H391.216V379.479H265.868V375.744Z" fill="#F0F0F0" />
        <path d="M583.099 356.767H650.178C665.296 356.767 678.934 369.859 682.493 387.796L693.717 444.18L716.746 444.092C727.724 444.092 737.168 453.484 739.23 466.487L742.295 485.869C746.929 486.662 750.912 490.926 752.039 496.582H613.546C598.446 496.582 584.825 483.508 581.266 465.589L565.161 384.537C562.325 370.035 570.888 356.767 583.099 356.767ZM719.213 485.605H736.252L733.397 467.809C731.864 458.241 724.887 451.281 716.799 451.281H695.179L697.752 465.13C700.201 476.989 709.223 485.605 719.213 485.605Z" fill="#E6E6E6" />
        <path d="M616.452 496.512H611.589L602.373 602.602H607.237L616.452 496.512Z" fill="#E0E0E0" />
        <path d="M634.708 496.512H629.845L620.63 602.602H625.493L634.708 496.512Z" fill="#E0E0E0" />
        <path d="M730.931 496.512H735.794L745.009 602.602H740.146L730.931 496.512Z" fill="#E0E0E0" />
        <path d="M712.676 496.512H717.539L726.755 602.602H721.892L712.676 496.512Z" fill="#E0E0E0" />
        <path d="M229.923 223.838H651.077C664.204 223.838 674.846 234.48 674.846 247.608V408.76C674.846 421.887 664.204 432.529 651.077 432.529H229.923C216.796 432.529 206.154 421.887 206.154 408.76V247.608C206.154 234.48 216.796 223.838 229.923 223.838Z" fill="#0C0319" />
        <path opacity="0.9" d="M211.441 408.76V247.607C211.441 237.399 219.716 229.124 229.924 229.124L651.078 229.124C661.286 229.124 669.561 237.399 669.561 247.607V408.76C669.561 418.968 661.286 427.243 651.078 427.243H229.924C219.716 427.243 211.441 418.968 211.441 408.76Z" fill="white" />
        <path d="M399.974 312.819V300.203H404.819C405.462 300.187 406.105 300.229 406.74 300.327C407.292 300.409 407.82 300.607 408.29 300.908C408.724 301.221 409.07 301.639 409.295 302.124C409.563 302.672 409.696 303.276 409.682 303.886C409.708 304.894 409.342 305.873 408.66 306.617C408.15 307.041 407.559 307.358 406.923 307.549C406.288 307.74 405.62 307.8 404.96 307.727H401.718V312.819H399.974ZM401.63 306.194H404.819C405.635 306.269 406.451 306.057 407.127 305.595C407.363 305.37 407.546 305.095 407.662 304.79C407.778 304.485 407.824 304.158 407.797 303.833C407.815 303.351 407.679 302.876 407.409 302.476C407.155 302.113 406.781 301.851 406.352 301.736C405.835 301.639 405.31 301.597 404.784 301.613H401.56L401.63 306.194Z" fill="#263238" />
        <path d="M411.499 312.819V303.674H412.908V305.066C413.136 304.573 413.466 304.135 413.877 303.78C414.174 303.581 414.524 303.476 414.882 303.48C415.446 303.491 415.996 303.662 416.467 303.974L415.939 305.401C415.592 305.194 415.198 305.079 414.794 305.066C414.466 305.063 414.148 305.175 413.895 305.383C413.612 305.592 413.407 305.89 413.314 306.229C413.136 306.8 413.047 307.394 413.049 307.991V312.819H411.499Z" fill="#263238" />
        <path d="M416.82 308.273C416.76 307.579 416.855 306.881 417.099 306.229C417.343 305.576 417.729 304.987 418.229 304.502C419.031 303.826 420.053 303.468 421.101 303.498C421.673 303.479 422.242 303.578 422.773 303.791C423.304 304.003 423.785 304.323 424.185 304.731C424.599 305.191 424.918 305.728 425.124 306.312C425.33 306.896 425.418 307.514 425.383 308.132C425.418 309.088 425.238 310.04 424.854 310.916C424.499 311.577 423.96 312.121 423.304 312.484C422.63 312.858 421.872 313.052 421.101 313.048C420.527 313.069 419.955 312.97 419.421 312.758C418.887 312.545 418.403 312.224 418 311.815C417.156 310.835 416.732 309.563 416.82 308.273ZM418.406 308.273C418.333 309.211 418.602 310.144 419.163 310.898C419.403 311.176 419.701 311.397 420.036 311.546C420.371 311.695 420.735 311.769 421.101 311.762C421.468 311.771 421.831 311.697 422.164 311.544C422.497 311.392 422.79 311.165 423.022 310.881C423.589 310.115 423.858 309.17 423.78 308.22C423.851 307.296 423.574 306.379 423.004 305.648C422.773 305.368 422.482 305.144 422.153 304.991C421.823 304.839 421.464 304.762 421.101 304.767C420.734 304.763 420.369 304.84 420.035 304.992C419.7 305.145 419.402 305.368 419.163 305.648C418.596 306.4 418.326 307.334 418.406 308.273Z" fill="#263238" />
        <path d="M426.898 313.594L428.413 313.806C428.425 314.004 428.478 314.197 428.569 314.373C428.66 314.549 428.787 314.704 428.942 314.828C429.403 315.142 429.953 315.296 430.51 315.268C431.095 315.3 431.675 315.146 432.166 314.828C432.561 314.532 432.842 314.109 432.959 313.629C433.07 312.972 433.111 312.305 433.083 311.638C432.776 312.015 432.389 312.319 431.95 312.526C431.511 312.734 431.031 312.84 430.545 312.837C429.985 312.859 429.427 312.748 428.919 312.512C428.41 312.276 427.965 311.922 427.62 311.48C426.928 310.536 426.569 309.39 426.598 308.22C426.589 307.391 426.751 306.57 427.074 305.806C427.346 305.095 427.824 304.481 428.449 304.044C429.071 303.636 429.802 303.427 430.545 303.445C431.063 303.434 431.576 303.546 432.042 303.773C432.508 304 432.913 304.334 433.224 304.749V303.639H434.651V311.55C434.718 312.574 434.567 313.601 434.21 314.563C433.916 315.169 433.434 315.664 432.836 315.973C432.123 316.339 431.328 316.515 430.528 316.484C429.593 316.525 428.669 316.273 427.885 315.762C427.554 315.51 427.291 315.18 427.119 314.802C426.947 314.424 426.871 314.009 426.898 313.594ZM428.184 308.097C428.108 309.03 428.363 309.96 428.907 310.722C429.121 310.982 429.39 311.191 429.695 311.334C429.999 311.478 430.332 311.551 430.669 311.55C431.006 311.554 431.339 311.481 431.644 311.338C431.95 311.195 432.218 310.984 432.431 310.722C432.972 309.979 433.228 309.066 433.153 308.15C433.22 307.248 432.957 306.353 432.413 305.63C432.202 305.365 431.934 305.149 431.629 305C431.324 304.851 430.99 304.771 430.651 304.767C430.313 304.766 429.979 304.842 429.674 304.989C429.369 305.135 429.101 305.348 428.889 305.612C428.369 306.332 428.119 307.212 428.184 308.097Z" fill="#263238" />
        <path d="M436.977 312.819V303.674H438.298V305.066C438.531 304.572 438.868 304.133 439.285 303.78C439.577 303.584 439.92 303.48 440.272 303.48C440.837 303.488 441.388 303.66 441.858 303.974L441.329 305.401C440.988 305.194 440.6 305.079 440.201 305.066C439.869 305.063 439.545 305.175 439.285 305.383C439.007 305.597 438.803 305.893 438.704 306.229C438.54 306.802 438.457 307.395 438.457 307.991V312.819H436.977Z" fill="#263238" />
        <path d="M449.114 309.894L450.717 310.088C450.502 310.952 450.007 311.721 449.307 312.273C448.547 312.81 447.63 313.083 446.7 313.048C446.11 313.077 445.521 312.98 444.971 312.765C444.421 312.549 443.923 312.219 443.51 311.797C443.091 311.317 442.77 310.758 442.568 310.153C442.365 309.548 442.284 308.909 442.33 308.273C442.265 306.989 442.694 305.728 443.528 304.749C443.921 304.329 444.4 303.999 444.932 303.78C445.464 303.561 446.037 303.459 446.612 303.481C447.17 303.461 447.726 303.561 448.242 303.774C448.759 303.987 449.224 304.307 449.607 304.714C450.419 305.702 450.828 306.961 450.752 308.238V308.643H443.933C443.934 309.491 444.241 310.311 444.797 310.951C445.041 311.209 445.336 311.413 445.664 311.55C445.992 311.686 446.345 311.753 446.7 311.744C447.222 311.761 447.736 311.606 448.162 311.304C448.602 310.929 448.931 310.442 449.114 309.894ZM444.021 307.392H449.131C449.127 306.755 448.917 306.137 448.532 305.63C448.306 305.343 448.017 305.113 447.686 304.957C447.356 304.801 446.994 304.724 446.629 304.732C446.303 304.725 445.979 304.784 445.677 304.905C445.374 305.026 445.099 305.207 444.867 305.436C444.339 305.951 444.035 306.654 444.021 307.392Z" fill="#263238" />
        <path d="M452.04 310.106L453.573 309.859C453.619 310.402 453.872 310.906 454.278 311.269C454.766 311.568 455.327 311.726 455.899 311.726C456.471 311.726 457.032 311.568 457.52 311.269C457.675 311.147 457.802 310.992 457.89 310.815C457.978 310.638 458.026 310.444 458.031 310.247C458.033 310.081 457.992 309.917 457.912 309.772C457.832 309.626 457.715 309.505 457.573 309.419C457.069 309.174 456.536 308.997 455.987 308.89C455.18 308.713 454.39 308.465 453.626 308.15C453.219 307.966 452.875 307.666 452.639 307.287C452.408 306.917 452.286 306.489 452.287 306.053C452.288 305.66 452.385 305.273 452.569 304.925C452.752 304.584 453.012 304.289 453.326 304.062C453.63 303.859 453.962 303.705 454.313 303.604C454.749 303.481 455.2 303.422 455.652 303.428C456.3 303.41 456.945 303.512 457.555 303.727C458.025 303.894 458.439 304.186 458.753 304.573C459.029 304.999 459.209 305.48 459.282 305.983L457.767 306.194C457.721 305.76 457.506 305.361 457.168 305.084C456.761 304.801 456.27 304.664 455.776 304.696C455.241 304.654 454.706 304.777 454.243 305.049C454.106 305.141 453.993 305.264 453.914 305.408C453.834 305.552 453.79 305.712 453.785 305.877C453.787 306.07 453.855 306.257 453.978 306.406C454.13 306.605 454.339 306.752 454.577 306.828C454.736 306.828 455.177 307.022 455.934 307.216C456.716 307.416 457.486 307.657 458.242 307.938C458.645 308.112 458.992 308.393 459.247 308.749C459.502 309.141 459.631 309.603 459.617 310.07C459.62 310.591 459.467 311.101 459.176 311.533C458.855 312.006 458.401 312.374 457.872 312.59C457.26 312.852 456.6 312.984 455.934 312.978C454.973 313.04 454.018 312.779 453.221 312.238C452.579 311.696 452.158 310.937 452.04 310.106Z" fill="#263238" />
        <path d="M460.851 310.106L462.384 309.859C462.431 310.402 462.683 310.906 463.089 311.268C463.577 311.568 464.138 311.726 464.71 311.726C465.282 311.726 465.843 311.568 466.331 311.268C466.487 311.146 466.613 310.991 466.701 310.815C466.79 310.638 466.838 310.444 466.842 310.247C466.845 310.081 466.804 309.917 466.723 309.771C466.643 309.626 466.526 309.504 466.384 309.418C465.881 309.174 465.348 308.996 464.798 308.89C463.991 308.713 463.201 308.465 462.437 308.15C462.03 307.966 461.687 307.666 461.451 307.286C461.22 306.916 461.098 306.489 461.098 306.053C461.1 305.66 461.196 305.273 461.38 304.925C461.564 304.584 461.823 304.288 462.138 304.062C462.441 303.859 462.774 303.705 463.124 303.604C463.56 303.481 464.011 303.422 464.464 303.428C465.111 303.41 465.756 303.512 466.366 303.727C466.836 303.894 467.25 304.186 467.565 304.573C467.84 304.999 468.021 305.48 468.093 305.983L466.578 306.194C466.532 305.759 466.317 305.36 465.979 305.084C465.572 304.801 465.081 304.664 464.587 304.696C464.052 304.654 463.517 304.777 463.054 305.049C462.917 305.141 462.805 305.264 462.725 305.408C462.646 305.552 462.601 305.712 462.596 305.877C462.598 306.07 462.667 306.256 462.79 306.405C462.941 306.605 463.15 306.752 463.389 306.828C463.547 306.828 463.988 307.022 464.745 307.216C465.527 307.415 466.298 307.657 467.054 307.938C467.456 308.112 467.803 308.393 468.058 308.749C468.314 309.141 468.443 309.602 468.428 310.07C468.432 310.591 468.278 311.101 467.988 311.533C467.666 312.006 467.213 312.373 466.684 312.59C466.071 312.852 465.411 312.984 464.745 312.978C463.784 313.039 462.829 312.779 462.032 312.238C461.39 311.696 460.97 310.937 460.851 310.106Z" fill="#263238" />
        <path d="M470.718 312.819V311.057H472.48V312.819H470.718Z" fill="#263238" />
        <path d="M475.616 312.819V311.057H477.378V312.819H475.616Z" fill="#263238" />
        <path d="M480.586 312.819V311.057H482.348V312.819H480.586Z" fill="#263238" />
        <path opacity="0.7" d="M229.923 229.124H651.042C655.95 229.124 660.658 231.073 664.13 234.542C667.603 238.011 669.556 242.717 669.56 247.625V267.43H211.44V247.625C211.445 242.723 213.393 238.022 216.858 234.554C220.323 231.086 225.021 229.133 229.923 229.124Z" fill="#0C0319" />
        <path d="M632.857 248.277C632.857 246.953 633.25 245.658 633.985 244.557C634.721 243.456 635.767 242.598 636.99 242.091C638.214 241.584 639.56 241.452 640.859 241.71C642.158 241.968 643.351 242.606 644.287 243.542C645.223 244.479 645.861 245.672 646.119 246.971C646.378 248.269 646.245 249.616 645.738 250.839C645.232 252.063 644.373 253.108 643.272 253.844C642.171 254.58 640.877 254.973 639.552 254.973C637.778 254.968 636.078 254.261 634.823 253.006C633.568 251.752 632.862 250.051 632.857 248.277Z" fill="white" />
        <path d="M606.428 248.277C606.428 246.953 606.82 245.658 607.556 244.557C608.292 243.456 609.337 242.598 610.561 242.091C611.784 241.584 613.131 241.452 614.429 241.71C615.728 241.968 616.921 242.606 617.858 243.542C618.794 244.479 619.432 245.672 619.69 246.971C619.949 248.269 619.816 249.616 619.309 250.839C618.802 252.063 617.944 253.108 616.843 253.844C615.742 254.58 614.447 254.973 613.123 254.973C611.349 254.968 609.649 254.261 608.394 253.006C607.139 251.752 606.432 250.051 606.428 248.277Z" fill="white" />
        <path d="M579.999 248.277C579.999 246.953 580.392 245.658 581.128 244.557C581.863 243.456 582.909 242.598 584.133 242.091C585.356 241.584 586.702 241.452 588.001 241.71C589.3 241.968 590.493 242.606 591.429 243.543C592.366 244.479 593.004 245.672 593.262 246.971C593.52 248.27 593.388 249.616 592.881 250.839C592.374 252.063 591.516 253.108 590.415 253.844C589.314 254.58 588.019 254.973 586.695 254.973C584.921 254.968 583.22 254.261 581.966 253.006C580.711 251.752 580.004 250.051 579.999 248.277Z" fill="white" />
        <path opacity="0.1" d="M242.557 353.944H638.443C639.996 353.944 641.486 353.328 642.585 352.232C643.685 351.135 644.306 349.647 644.31 348.094C644.306 346.54 643.686 345.05 642.587 343.951C641.487 342.851 639.997 342.232 638.443 342.227H242.557C241.002 342.232 239.512 342.851 238.413 343.951C237.313 345.05 236.694 346.54 236.689 348.094C236.694 349.647 237.314 351.135 238.414 352.232C239.514 353.328 241.004 353.944 242.557 353.944Z" fill="#110524" />
        <path d="M244.252 354H608.726C610.651 354 612.498 353.369 613.862 352.246C615.225 351.123 615.994 349.6 616 348.009C615.994 346.417 615.226 344.891 613.863 343.765C612.5 342.639 610.653 342.005 608.726 342H244.252C242.327 342.005 240.482 342.64 239.123 343.766C237.763 344.893 237 346.418 237 348.009C237 349.598 237.764 351.122 239.124 352.245C240.484 353.369 242.329 354 244.252 354Z" fill="#EEA0DF" />
        <path d="M361.739 380.18H346.727L338.587 372.022L330.446 380.18H315.399C313.694 380.185 312.061 380.864 310.856 382.069C309.651 383.274 308.972 384.907 308.967 386.612V405.254C308.972 406.958 309.651 408.591 310.856 409.796C312.061 411.001 313.694 411.68 315.399 411.685H361.739C363.443 411.68 365.077 411.001 366.282 409.796C367.487 408.591 368.166 406.958 368.171 405.254V386.612C368.166 384.907 367.487 383.274 366.282 382.069C365.077 380.864 363.443 380.185 361.739 380.18Z" fill="#263238" />
        <path d="M322.5 390.629H330.817V392.549C330.141 393.176 329.549 393.886 329.055 394.664C328.461 395.628 327.993 396.664 327.663 397.747C327.377 398.766 327.194 399.811 327.117 400.866H324.28C324.449 399.428 324.804 398.019 325.337 396.673C325.929 395.361 326.694 394.135 327.61 393.025H322.553L322.5 390.629Z" fill="white" />
        <path d="M333.16 390.629H339.909V392.902H335.31L335.063 394.435C335.369 394.292 335.687 394.18 336.015 394.1C336.315 394.03 336.623 393.995 336.931 393.994C337.387 393.972 337.843 394.044 338.27 394.205C338.697 394.365 339.087 394.611 339.416 394.928C339.733 395.225 339.983 395.586 340.15 395.987C340.317 396.388 340.397 396.82 340.385 397.254C340.377 397.925 340.208 398.584 339.891 399.175C339.574 399.765 339.09 400.249 338.499 400.567C337.773 400.907 336.976 401.071 336.173 401.042C335.58 401.062 334.987 400.997 334.411 400.849C333.968 400.742 333.549 400.551 333.178 400.285C332.858 400.042 332.579 399.751 332.35 399.421C332.116 399.05 331.938 398.646 331.821 398.223L334.711 397.906C334.751 398.304 334.925 398.677 335.204 398.963C335.451 399.197 335.781 399.324 336.121 399.316C336.306 399.318 336.49 399.278 336.658 399.199C336.826 399.12 336.974 399.003 337.09 398.857C337.379 398.474 337.517 397.997 337.477 397.518C337.522 397.039 337.384 396.56 337.09 396.179C336.957 396.038 336.796 395.927 336.616 395.854C336.437 395.781 336.244 395.747 336.05 395.756C335.774 395.758 335.503 395.824 335.257 395.95C335.019 396.092 334.805 396.27 334.623 396.479L332.209 396.144L333.16 390.629Z" fill="white" />
        <path d="M341.654 393.149C341.654 392.68 341.757 392.217 341.953 391.792C342.159 391.372 342.492 391.026 342.905 390.805C343.373 390.565 343.894 390.444 344.42 390.453C344.79 390.432 345.161 390.487 345.51 390.614C345.858 390.742 346.177 390.938 346.446 391.193C346.922 391.733 347.185 392.429 347.185 393.149C347.185 393.869 346.922 394.564 346.446 395.104C346.177 395.359 345.858 395.556 345.51 395.683C345.161 395.81 344.79 395.865 344.42 395.845C343.894 395.853 343.373 395.732 342.905 395.492C342.492 395.271 342.159 394.926 341.953 394.505C341.757 394.08 341.654 393.617 341.654 393.149ZM343.61 393.149C343.574 393.585 343.672 394.021 343.892 394.4C343.954 394.48 344.034 394.545 344.126 394.59C344.218 394.635 344.318 394.658 344.42 394.658C344.522 394.658 344.623 394.635 344.714 394.59C344.806 394.545 344.886 394.48 344.949 394.4C345.159 394.018 345.257 393.584 345.231 393.149C345.259 392.708 345.161 392.268 344.949 391.88C344.884 391.802 344.803 391.74 344.712 391.697C344.621 391.654 344.521 391.632 344.42 391.632C344.319 391.632 344.22 391.654 344.128 391.697C344.037 391.74 343.956 391.802 343.892 391.88C343.668 392.27 343.569 392.719 343.61 393.166V393.149ZM350.34 390.435H351.821L345.883 401.395H344.42L350.34 390.435ZM349.037 398.664C349.072 398.22 349.198 397.788 349.407 397.395C349.613 396.975 349.946 396.63 350.358 396.408C350.826 396.166 351.347 396.045 351.873 396.056C352.244 396.035 352.614 396.09 352.963 396.217C353.311 396.345 353.63 396.542 353.9 396.796C354.15 397.055 354.344 397.361 354.471 397.698C354.599 398.034 354.656 398.393 354.64 398.752C354.657 399.111 354.6 399.47 354.473 399.807C354.346 400.143 354.15 400.45 353.9 400.708C353.63 400.962 353.311 401.159 352.963 401.286C352.614 401.413 352.244 401.468 351.873 401.448C351.346 401.467 350.823 401.346 350.358 401.095C349.942 400.879 349.608 400.532 349.407 400.109C349.175 399.668 349.049 399.179 349.037 398.681V398.664ZM350.992 398.664C350.961 399.099 351.059 399.535 351.274 399.915C351.335 399.998 351.414 400.067 351.506 400.114C351.598 400.161 351.7 400.185 351.803 400.185C351.906 400.185 352.008 400.161 352.1 400.114C352.192 400.067 352.271 399.998 352.332 399.915C352.555 399.538 352.654 399.1 352.613 398.664C352.65 398.222 352.552 397.78 352.332 397.395C352.27 397.315 352.189 397.25 352.097 397.207C352.005 397.164 351.904 397.144 351.803 397.148C351.699 397.143 351.596 397.165 351.504 397.211C351.411 397.257 351.332 397.327 351.274 397.413C351.052 397.803 350.954 398.252 350.992 398.699V398.664Z" fill="white" />
        <path d="M504.173 639.043C333.141 639.043 194.492 627.122 194.492 612.416C194.492 597.711 333.141 585.789 504.173 585.789C675.205 585.789 813.854 597.711 813.854 612.416C813.854 627.122 675.205 639.043 504.173 639.043Z" fill="#0C0319" />
        <path opacity="0.1" d="M440.021 245.281L438.463 238.724C438.365 238.423 438.341 238.103 438.394 237.79C438.446 237.478 438.573 237.183 438.765 236.93C438.956 236.678 439.205 236.475 439.492 236.34C439.779 236.205 440.094 236.141 440.41 236.155H464.097C467.975 214.85 481.758 199.198 477.787 173.315C470 161.074 498.032 115.584 518.387 142.931C544.753 144.66 520.365 194.122 570.527 206.783C607.421 216.127 627.651 237.494 635.796 255.466C632.694 257.189 629.205 258.095 625.657 258.098H624.723C621.549 251.019 617.218 244.518 611.906 238.864C614.664 245.126 617.041 251.549 619.023 258.098H437.731L437.28 247.944C437.247 247.579 437.296 247.212 437.424 246.868C437.551 246.525 437.753 246.214 438.016 245.959C438.278 245.704 438.595 245.511 438.942 245.393C439.288 245.276 439.657 245.237 440.021 245.281Z" fill="#ED2188" />
        <path d="M494.728 254.484C497.842 278.156 501.362 324.846 566.163 329.471C608.959 332.508 627.726 291.83 654.668 278.561C652.285 259.125 643.361 239.549 643.05 238.849C652.52 249.119 658.957 261.815 661.645 275.524C664.765 274.363 667.973 273.452 671.238 272.799C671.238 254.484 651.849 219.413 601.671 206.767C551.493 194.121 575.897 144.66 549.531 142.916C529.145 115.568 501.144 161.059 508.931 173.3C513.945 206.02 490.601 222.356 494.728 254.484Z" fill="#263238" />
        <path d="M470.267 255.388C470.39 254.558 470.735 253.777 471.263 253.126C471.792 252.476 472.487 251.979 473.274 251.689C474.061 251.4 474.911 251.327 475.736 251.479C476.56 251.631 477.329 252.002 477.961 252.553L485.747 259.156C486.192 259.744 486.492 260.428 486.622 261.154C486.752 261.879 486.708 262.625 486.495 263.33L485.109 267.862C481.458 268.091 477.799 267.561 474.363 266.305C472.785 265.775 471.448 264.7 470.591 263.273C469.735 261.846 469.416 260.159 469.691 258.518L470.267 255.388Z" fill="#FFB573" />
        <path d="M514.293 228.15C513.982 229.863 513.561 231.965 513.156 233.912C512.751 235.859 512.3 237.852 511.833 239.814C510.898 243.754 509.824 247.601 508.718 251.494C507.612 255.388 506.211 259.032 504.778 262.676C503.315 266.178 501.635 269.584 499.748 272.877L503.765 269.684C502.934 270.216 501.934 270.416 500.962 270.245C499.147 269.967 497.399 269.354 495.807 268.438C493.77 267.345 491.827 266.085 489.998 264.67C488.083 263.237 486.105 261.555 484.361 259.998L483.987 259.686C483.176 258.99 482.151 258.593 481.083 258.562C480.015 258.53 478.968 258.866 478.117 259.512C477.266 260.159 476.663 261.078 476.408 262.116C476.153 263.153 476.261 264.247 476.714 265.215C478.014 267.956 479.579 270.564 481.386 273.001C483.211 275.517 485.299 277.829 487.616 279.901C490.282 282.295 493.386 284.152 496.757 285.367C498.76 286.081 500.862 286.475 502.987 286.535C505.291 286.598 507.588 286.261 509.777 285.538C511.264 285.05 512.553 284.094 513.452 282.813L513.795 282.346C516.54 278.457 518.967 274.353 521.052 270.074C523.043 265.927 524.805 261.674 526.332 257.334C527.889 253.036 529.088 248.707 530.194 244.331C530.723 242.15 531.237 239.954 531.751 237.743C532.265 235.532 532.561 233.382 532.904 230.891C533.196 228.491 532.548 226.072 531.094 224.14C529.641 222.209 527.496 220.916 525.109 220.533C522.722 220.15 520.28 220.706 518.295 222.086C516.31 223.466 514.937 225.561 514.465 227.932L514.293 228.15Z" fill="#FFB573" />
        <path d="M622.809 554.602C625.223 543.701 624.616 541.131 626.578 535.135C627.603 531.739 629.08 528.497 630.97 525.495C632.683 522.381 629.413 519.78 626.173 519.359C623.635 519.048 620.956 518.939 617.841 518.44L611.114 530.993C614.664 535.493 617.499 546.566 616.237 554.945C615.365 560.987 621.844 558.978 622.809 554.602Z" fill="#ED2188" />
        <path d="M514.29 294.882C514.29 294.882 512.514 387.187 510.63 438.33C505.678 468.59 609.74 531.6 609.74 531.6C611.967 532.659 617.869 521.119 617.776 518.441C617.776 518.441 573.018 452.518 546.356 436.602C575.945 354.918 567.847 294.882 567.847 294.882H514.29Z" fill="#263238" />
        <path opacity="0.2" d="M567.911 294.882H534.132C534.132 294.882 540.891 385.115 548.413 430.933C575.557 352.162 567.911 294.882 567.911 294.882Z" fill="black" />
        <path opacity="0.2" d="M588.793 479.32C575.976 463.326 561.15 446.615 549.236 438.455C550.934 454.278 552.678 473.371 554.017 492.962C565.215 501.824 576.833 510.093 586.55 516.65C588.162 504.273 588.911 491.8 588.793 479.32Z" fill="black" />
        <path d="M603.275 529.326C604.63 530.292 607.044 532.052 608.788 533.407C609.063 533.622 609.412 533.72 609.759 533.68C610.107 533.639 610.424 533.462 610.641 533.188C613.985 528.586 616.899 523.685 619.347 518.549C619.476 518.296 619.52 518.007 619.472 517.727C619.424 517.446 619.288 517.189 619.082 516.992L614.721 512.663C614.582 512.526 614.414 512.422 614.229 512.358C614.045 512.293 613.849 512.269 613.654 512.289C613.46 512.308 613.272 512.37 613.104 512.469C612.936 512.569 612.792 512.704 612.681 512.865L602.948 527.473C602.748 527.763 602.67 528.12 602.731 528.467C602.792 528.814 602.988 529.122 603.275 529.326Z" fill="#ED2188" />
        <path opacity="0.3" d="M603.275 529.326C604.63 530.292 607.044 532.052 608.788 533.407C609.063 533.622 609.412 533.72 609.759 533.68C610.107 533.639 610.424 533.462 610.641 533.188C613.985 528.586 616.899 523.685 619.347 518.549C619.476 518.296 619.52 518.007 619.472 517.727C619.424 517.446 619.288 517.189 619.082 516.992L614.721 512.663C614.582 512.526 614.414 512.422 614.229 512.358C614.045 512.293 613.849 512.269 613.654 512.289C613.46 512.308 613.272 512.37 613.104 512.469C612.936 512.569 612.792 512.704 612.681 512.865L602.948 527.473C602.748 527.763 602.67 528.12 602.731 528.467C602.792 528.814 602.988 529.122 603.275 529.326Z" fill="white" />
        <path d="M553.115 607.396C564.483 607.396 563.689 607.225 570.106 607.007C575.587 606.804 576.849 607.49 581.256 607.396C584.932 607.318 585.118 603.799 584.371 599.75C583.982 597.71 583.327 595.233 582.814 591.963H565.527C563.954 594.381 561.862 596.417 559.402 597.923C556.942 599.43 554.177 600.367 551.308 600.669C545.126 601.463 548.552 607.396 553.115 607.396Z" fill="#ED2188" />
        <path d="M530.427 294.882C530.427 294.882 548.305 393.307 554.862 437.925C561.729 484.771 570.217 560.816 565.545 591.948C568.068 593.505 577.443 593.583 582.832 591.948C582.832 591.948 610.163 485.098 587.332 439.997C600.321 330.343 581.103 324.643 575.808 294.882H530.427Z" fill="#263238" />
        <path d="M564.83 585.453C564.594 587.613 564.199 589.753 563.647 591.854C563.595 592.021 563.581 592.197 563.604 592.37C563.627 592.544 563.687 592.71 563.78 592.858C563.873 593.005 563.997 593.131 564.144 593.227C564.29 593.323 564.455 593.385 564.628 593.411C570.857 594.424 580.201 592.96 583.114 592.43C583.389 592.371 583.642 592.238 583.848 592.046C584.054 591.854 584.203 591.61 584.282 591.34L585.761 585.344C585.819 585.16 585.831 584.965 585.798 584.775C585.764 584.585 585.685 584.406 585.567 584.253C585.449 584.1 585.297 583.978 585.122 583.897C584.947 583.816 584.755 583.778 584.562 583.787L566.247 584.13C565.896 584.157 565.565 584.303 565.308 584.544C565.05 584.784 564.882 585.105 564.83 585.453Z" fill="#ED2188" />
        <path opacity="0.3" d="M564.83 585.453C564.594 587.613 564.199 589.753 563.647 591.854C563.595 592.021 563.581 592.197 563.604 592.37C563.627 592.544 563.687 592.71 563.78 592.858C563.873 593.005 563.997 593.131 564.144 593.227C564.29 593.323 564.455 593.385 564.628 593.411C570.857 594.424 580.201 592.96 583.114 592.43C583.389 592.371 583.642 592.238 583.848 592.046C584.054 591.854 584.203 591.61 584.282 591.34L585.761 585.344C585.819 585.16 585.831 584.965 585.798 584.775C585.764 584.585 585.685 584.406 585.567 584.253C585.449 584.1 585.297 583.978 585.122 583.897C584.947 583.816 584.755 583.778 584.562 583.787L566.247 584.13C565.896 584.157 565.565 584.303 565.308 584.544C565.05 584.784 564.882 585.105 564.83 585.453Z" fill="white" />
        <path d="M528.85 208.667C517.513 210.801 515.115 215.441 506.767 232.65C509.29 243.988 522.839 253.939 522.839 253.939C522.839 253.939 547.554 223.306 528.85 208.667Z" fill="white" />
        <path d="M575.804 294.882C586.441 309.397 598.027 332.586 598.121 382.421C542.835 407.339 516.531 407.339 503.387 401.109C512.871 362.674 514.289 294.882 514.289 294.882C523.119 285.164 575.804 294.882 575.804 294.882Z" fill="#EC2089" />
        <path opacity="0.2" d="M538.521 338.644C543.365 356.553 538.397 374.463 534.13 378.434C537.057 368.093 538.521 338.644 538.521 338.644Z" fill="black" />
        <path d="M510.879 230.143C510.692 236.185 511.284 243.489 512.639 257.879C513.558 270.058 510.521 293.216 514.352 294.913C524.039 297.623 549.47 296.377 575.805 294.913C577.036 277.471 576.584 265.448 587.61 226.514C588.276 224.475 588.474 222.313 588.192 220.187C587.909 218.061 587.152 216.025 585.977 214.231C584.802 212.437 583.238 210.93 581.402 209.821C579.566 208.712 577.504 208.031 575.369 207.826C572.924 207.577 570.339 207.359 567.691 207.234C558.406 206.572 549.085 206.572 539.799 207.234C536.762 207.515 533.57 207.888 530.611 208.309C525.299 209.092 520.424 211.698 516.824 215.682C513.224 219.666 511.122 224.779 510.879 230.143Z" fill="white" />
        <path d="M557.788 180.214C556.23 189.387 560.326 201.285 566.166 207.265C566.166 207.265 557.663 205.988 539.613 217.155C534.381 209.664 538.258 207.265 538.258 207.265C543.102 206.331 543.102 202.796 541.202 195.975L557.788 180.214Z" fill="#FFB573" />
        <path d="M543.397 214.912C549.346 215.753 551.184 224.739 551.184 224.739C551.184 224.739 565.465 214.632 569.981 207.515C568.188 206.497 566.446 205.39 564.764 204.197C564.764 204.197 546.87 211.455 543.397 214.912Z" fill="#ED2188" />
        <path d="M537.747 213.947C537.747 213.947 533.075 214.974 530.661 221.546C529.306 208.449 535.504 207.25 535.504 207.25C536.286 206.697 537.174 206.311 538.112 206.118C539.05 205.925 540.018 205.929 540.955 206.129C536.236 208.62 537.747 213.947 537.747 213.947Z" fill="#ED2188" />
        <path opacity="0.2" d="M541.2 195.975L550.934 186.724C550.763 188.281 550.498 190.228 550.14 192.112C549.028 196.934 546.206 201.189 542.197 204.088C542.664 202.22 542.197 199.556 541.2 195.975Z" fill="black" />
        <path d="M554.022 159.174C557.837 173.424 559.753 179.42 555.299 189.2C548.602 204.011 530.786 206.331 522.937 193.794C515.851 182.441 510.805 161.09 522.205 150.282C524.573 147.884 527.54 146.163 530.798 145.298C534.055 144.433 537.485 144.455 540.731 145.362C543.977 146.269 546.921 148.029 549.258 150.457C551.595 152.886 553.24 155.896 554.022 159.174Z" fill="#FFB573" />
        <path d="M548.271 145.298C546.06 162.336 523.634 152.4 510.007 172.131C511.299 155.265 527.807 131.438 548.271 145.298Z" fill="#263238" />
        <path d="M546.869 144.66C527.713 157.461 548.675 167.833 562.831 167.07C567.504 152.929 546.869 144.66 546.869 144.66Z" fill="#263238" />
        <path opacity="0.2" d="M537.197 169.889C537.791 169.119 538.532 168.473 539.377 167.989C540.221 167.506 541.153 167.193 542.118 167.07C540.674 168.316 539.003 169.273 537.197 169.889Z" fill="black" />
        <path opacity="0.2" d="M537.945 170.963C538.623 170.392 539.417 169.974 540.272 169.74C541.128 169.506 542.023 169.461 542.898 169.609C541.363 170.409 539.674 170.871 537.945 170.963Z" fill="black" />
        <path d="M534.367 171.275C534.741 172.459 534.445 173.658 533.713 173.938C532.981 174.218 532.078 173.502 531.704 172.381C531.331 171.259 531.627 170.014 532.358 169.718C533.09 169.422 533.994 170.107 534.367 171.275Z" fill="#263238" />
        <path d="M520.627 176.897C521.001 178.081 520.705 179.264 519.973 179.56C519.241 179.856 518.416 179.124 517.98 178.003C517.544 176.881 517.902 175.62 518.634 175.34C519.366 175.059 520.269 175.713 520.627 176.897Z" fill="#263238" />
        <path d="M518.96 175.215L516.017 175.449C516.017 175.449 518.104 177.193 518.96 175.215Z" fill="#263238" />
        <path d="M525.082 177.333C524.954 180.424 524.431 183.486 523.525 186.444C524.246 186.645 525.004 186.679 525.74 186.544C526.477 186.409 527.173 186.109 527.776 185.665L525.082 177.333Z" fill="#ED893E" />
        <path d="M535.536 187.503C534.958 187.859 534.348 188.162 533.714 188.406C533.671 188.426 533.625 188.436 533.578 188.435C533.531 188.434 533.485 188.423 533.443 188.402C533.401 188.381 533.365 188.351 533.336 188.314C533.307 188.277 533.287 188.234 533.278 188.188C533.247 188.097 533.253 187.998 533.293 187.911C533.334 187.824 533.406 187.756 533.496 187.721C534.934 187.161 536.228 186.286 537.282 185.159C538.336 184.032 539.123 182.683 539.585 181.211C539.604 181.118 539.659 181.037 539.737 180.984C539.816 180.931 539.913 180.912 540.006 180.931C540.097 180.959 540.174 181.022 540.221 181.107C540.267 181.191 540.279 181.289 540.255 181.382C539.482 183.93 537.803 186.107 535.536 187.503Z" fill="#263238" />
        <path d="M561.01 168.659C561.039 170.067 560.778 171.466 560.242 172.768C559.706 174.07 558.907 175.248 557.895 176.227C555.263 178.517 552.242 175.682 551.557 171.727C550.918 168.16 551.557 162.663 554.874 161.962C558.191 161.261 561.01 164.859 561.01 168.659Z" fill="#FFB573" />
        <path d="M534.785 163.566C534.692 163.59 534.596 163.594 534.502 163.578C534.408 163.562 534.319 163.526 534.24 163.473C533.514 162.98 532.679 162.673 531.806 162.581C530.934 162.489 530.053 162.613 529.24 162.943C529.158 162.984 529.068 163.008 528.976 163.013C528.885 163.018 528.793 163.004 528.706 162.972C528.62 162.94 528.542 162.89 528.475 162.826C528.409 162.762 528.357 162.685 528.322 162.6C528.255 162.418 528.258 162.217 528.33 162.036C528.401 161.855 528.537 161.707 528.711 161.619C529.731 161.182 530.845 161.009 531.95 161.115C533.055 161.221 534.115 161.603 535.034 162.227C535.186 162.342 535.289 162.511 535.321 162.699C535.353 162.887 535.311 163.08 535.205 163.239C535.111 163.397 534.961 163.514 534.785 163.566Z" fill="#263238" />
        <path d="M514.042 172.069C513.961 172.104 513.873 172.122 513.785 172.122C513.696 172.122 513.609 172.104 513.528 172.069C513.442 172.03 513.364 171.975 513.3 171.906C513.235 171.838 513.185 171.757 513.151 171.669C513.118 171.58 513.103 171.486 513.106 171.392C513.109 171.298 513.131 171.205 513.17 171.119C513.586 170.033 514.246 169.056 515.099 168.265C515.953 167.474 516.976 166.889 518.091 166.556C518.18 166.536 518.273 166.535 518.363 166.552C518.453 166.57 518.538 166.607 518.613 166.66C518.688 166.713 518.751 166.78 518.798 166.859C518.844 166.938 518.874 167.026 518.885 167.117C518.914 167.308 518.872 167.503 518.765 167.664C518.659 167.825 518.496 167.941 518.309 167.989C517.431 168.269 516.628 168.743 515.959 169.377C515.291 170.011 514.773 170.787 514.447 171.649C514.373 171.837 514.227 171.988 514.042 172.069Z" fill="#263238" />
        <path d="M532.715 169.593L529.756 169.842C529.756 169.842 531.842 171.509 532.715 169.593Z" fill="#263238" />
        <path d="M578.436 231.124L583.108 240.78C584.665 244.035 586.222 247.305 587.64 250.56C589.057 253.815 590.458 257.101 591.658 260.324C592.826 263.375 593.804 266.496 594.585 269.669L594.881 265.822C594.748 266.486 594.471 267.113 594.071 267.66C593.426 268.705 592.68 269.686 591.844 270.587C589.904 272.757 587.823 274.796 585.615 276.692C583.341 278.717 580.943 280.695 578.451 282.657C575.959 284.619 573.405 286.566 570.96 288.466L570.805 288.575C569.909 289.244 569.283 290.212 569.041 291.303C568.798 292.395 568.955 293.537 569.483 294.522C570.01 295.508 570.874 296.272 571.916 296.675C572.959 297.078 574.112 297.094 575.165 296.72C578.401 295.614 581.577 294.34 584.681 292.904C587.795 291.472 590.817 289.899 593.822 288.123C596.951 286.292 599.925 284.209 602.715 281.894C604.269 280.577 605.716 279.14 607.044 277.596C608.748 275.637 610.078 273.383 610.969 270.946C611.344 269.921 611.472 268.821 611.343 267.737L611.265 267.083C610.714 262.905 609.818 258.78 608.586 254.749C607.48 250.856 606.157 247.165 604.739 243.505C603.322 239.845 601.78 236.294 600.176 232.775C598.572 229.255 596.875 225.86 594.897 222.325C593.716 220.195 591.749 218.61 589.417 217.908C587.084 217.206 584.57 217.443 582.409 218.568C580.249 219.693 578.613 221.617 577.85 223.93C577.088 226.244 577.259 228.764 578.327 230.953L578.436 231.124Z" fill="#FFB573" />
        <path d="M575.933 207.92C586.056 207.92 590.494 210.287 601.676 228.866C599.184 236.855 583.143 246.636 583.143 246.636C583.143 246.636 565.841 224.334 575.933 207.92Z" fill="white" />
        <path d="M559.033 300.94L559.547 296.393C559.644 295.547 559.943 294.737 560.417 294.03C560.891 293.323 561.527 292.739 562.272 292.328L569.327 288.419C570.715 287.651 572.267 287.228 573.852 287.184C575.437 287.141 577.01 287.479 578.438 288.17L580.244 289.027C579.886 296.642 573.906 304.6 573.906 304.6L572.442 307.061C572.156 307.573 571.772 308.023 571.312 308.387C570.852 308.75 570.325 309.019 569.761 309.178C569.196 309.338 568.606 309.384 568.024 309.314C567.442 309.245 566.879 309.061 566.368 308.774L561.462 305.955C560.617 305.443 559.937 304.697 559.506 303.807C559.075 302.917 558.911 301.921 559.033 300.94Z" fill="#FFB573" />
        <path d="M480.306 272.799H533.692C534.007 272.811 534.32 272.747 534.605 272.613C534.89 272.479 535.138 272.278 535.329 272.028C535.52 271.777 535.648 271.484 535.702 271.174C535.756 270.864 535.734 270.545 535.639 270.245L528.102 238.724C527.915 238.024 527.514 237.401 526.956 236.94C526.398 236.479 525.709 236.204 524.987 236.154H471.601C471.284 236.141 470.969 236.205 470.683 236.34C470.396 236.475 470.147 236.677 469.955 236.93C469.764 237.182 469.637 237.477 469.584 237.79C469.532 238.102 469.556 238.423 469.654 238.724L477.207 270.245C477.391 270.941 477.79 271.562 478.346 272.021C478.902 272.479 479.587 272.751 480.306 272.799Z" fill="#110524" />
        <path d="M533.493 270.26C533.543 270.249 533.59 270.229 533.633 270.199C533.675 270.17 533.711 270.132 533.738 270.089C533.766 270.045 533.784 269.997 533.793 269.946C533.802 269.895 533.8 269.843 533.789 269.793L526.749 240.39C526.541 239.596 526.084 238.89 525.445 238.374C524.806 237.859 524.019 237.561 523.199 237.525H472.382C472.279 237.525 472.18 237.566 472.107 237.639C472.034 237.712 471.993 237.811 471.993 237.914C471.993 238.017 472.034 238.117 472.107 238.19C472.18 238.263 472.279 238.304 472.382 238.304H523.277C523.92 238.344 524.535 238.582 525.037 238.987C525.539 239.391 525.904 239.941 526.08 240.562L533.103 269.965C533.125 270.051 533.175 270.127 533.246 270.181C533.317 270.235 533.404 270.263 533.493 270.26Z" fill="white" />
        <path d="M472.037 245.499L472.738 245.826C473.817 246.313 474.748 247.077 475.437 248.039C476.126 249.002 476.549 250.129 476.663 251.307L477.083 257.957C477.138 258.611 477.055 259.268 476.839 259.888C476.623 260.507 476.279 261.073 475.829 261.551C475.38 262.028 474.835 262.406 474.23 262.658C473.625 262.911 472.973 263.034 472.318 263.019H471.882C471.12 262.974 470.4 262.652 469.861 262.112C469.321 261.572 468.998 260.853 468.954 260.091L468.424 247.928C468.387 247.486 468.469 247.041 468.661 246.641C468.853 246.241 469.149 245.899 469.517 245.652C469.885 245.404 470.313 245.259 470.756 245.232C471.199 245.205 471.642 245.297 472.037 245.499Z" fill="#FFB573" />
      </svg>