<svg
        className="login-right-section-svg"
        viewBox="0 0 737 744"
        fill="none"
        xmlns="http://www.w3.org/2000/svg"
      >
        <g clipPath="url(#clip0_1_18)">
          <path
            d="M426.083 680.261C470.07 680.261 505.73 659.676 505.73 634.283C505.73 608.89 470.07 588.304 426.083 588.304C382.095 588.304 346.436 608.89 346.436 634.283C346.436 659.676 382.095 680.261 426.083 680.261Z"
            fill="#0C0319"
          />
          <path
            d="M384.689 478.587L171.657 601.602C165.661 605.129 155.202 604.618 148.271 600.632L72.6451 556.964C65.7316 552.96 64.9732 546.929 70.8814 543.472L283.914 420.439C289.91 416.912 300.369 417.423 307.3 421.409L382.926 465.077C389.928 469.081 390.686 475.13 384.689 478.587Z"
            fill="#0C0319"
          />
          <path
            d="M99.5232 142.521C99.5232 137.386 100.874 132.34 103.441 127.892C106.007 123.444 109.698 119.748 114.144 117.178L300.245 9.73537C301.487 9.01953 302.873 8.59094 304.302 8.48109C305.731 8.37124 307.166 8.58291 308.503 9.10057C309.839 9.61822 311.043 10.4287 312.025 11.4725C313.007 12.5162 313.743 13.7667 314.178 15.1322C313.678 12.9424 312.741 10.8762 311.423 9.05775C310.105 7.23929 308.432 5.70608 306.506 4.55021L305.854 4.16221C301.225 1.40124 295.935 -0.0553082 290.545 -0.0529405C288.824 -0.0781537 287.129 0.367009 285.642 1.23453L99.5408 108.747C95.0893 111.313 91.3925 115.007 88.8227 119.456C86.2529 123.905 84.9007 128.953 84.9024 134.091V536.541C84.9046 538.222 85.3485 539.873 86.1899 541.329C87.0312 542.785 88.2403 543.994 89.6961 544.835C91.1518 545.677 92.8031 546.121 94.4845 546.123C96.1659 546.125 97.8183 545.685 99.2763 544.847L99.5232 544.706V142.521Z"
            fill="#37474F"
          />
          <path
            d="M299.998 445.836L113.897 553.278C112.441 554.12 110.789 554.565 109.107 554.566C107.425 554.567 105.773 554.126 104.316 553.285C102.859 552.445 101.649 551.236 100.807 549.78C99.966 548.323 99.5231 546.671 99.5232 544.989V142.522C99.5233 137.386 100.874 132.341 103.441 127.892C106.007 123.444 109.698 119.749 114.144 117.178L300.245 9.73564C301.701 8.8931 303.353 8.44883 305.035 8.44751C306.717 8.4462 308.37 8.8879 309.827 9.72816C311.284 10.5684 312.494 11.7776 313.335 13.2341C314.176 14.6905 314.619 16.3429 314.619 18.0248V420.492C314.621 425.628 313.271 430.674 310.704 435.123C308.138 439.571 304.445 443.266 299.998 445.836Z"
            fill="#455A64"
          />
          <path
            d="M99.5232 544.989V142.521C99.5251 138.137 100.514 133.809 102.416 129.858L88.0241 121.04C85.9726 125.116 84.9035 129.616 84.9024 134.179V539.997C84.9045 541.593 85.3198 543.162 86.108 544.549C86.8961 545.937 88.0302 547.097 89.3998 547.916L96.8248 552.325C99.3946 553.86 102.332 554.671 105.326 554.671H109.029C107.769 554.66 106.524 554.4 105.364 553.907C104.205 553.414 103.154 552.698 102.271 551.799C101.388 550.9 100.691 549.835 100.22 548.667C99.7482 547.498 99.5115 546.249 99.5232 544.989Z"
            fill="#263238"
          />
          <path
            d="M293.578 48.4299V386.629C293.582 391.165 292.39 395.622 290.124 399.551C287.858 403.48 284.596 406.742 280.668 409.01L116.33 503.895C115.092 504.614 113.689 505.003 112.256 505.024C112.733 506.119 113.435 507.101 114.317 507.906C115.198 508.71 116.24 509.32 117.374 509.695C118.508 510.069 119.708 510.2 120.895 510.079C122.083 509.958 123.232 509.588 124.267 508.992L288.587 414.107C292.518 411.842 295.783 408.58 298.053 404.651C300.322 400.722 301.516 396.264 301.515 391.726V56.825C301.509 54.6782 300.685 52.6143 299.211 51.0543C297.736 49.4943 295.721 48.5557 293.578 48.4299Z"
            fill="#37474F"
          />
          <path
            d="M112.256 505.077C113.689 505.056 115.092 504.667 116.33 503.948L280.668 409.063C284.604 406.791 287.87 403.52 290.137 399.581C292.404 395.642 293.591 391.174 293.578 386.629V48.43C291.926 48.4235 290.295 48.8041 288.816 49.5411L124.496 144.408C120.566 146.675 117.302 149.937 115.033 153.866C112.763 157.795 111.569 162.252 111.569 166.789V501.708C111.56 502.886 111.8 504.052 112.274 505.13L112.256 505.077Z"
            fill="#F7D4F0"
          />
          <path
            d="M181.022 94.832C180.965 95.8599 180.667 96.8601 180.153 97.7517C179.638 98.6433 178.921 99.4012 178.059 99.9642C176.436 100.899 175.113 100.141 175.113 98.2006C175.169 97.1745 175.465 96.1759 175.976 95.2846C176.488 94.3934 177.201 93.6343 178.059 93.0683C179.699 92.1865 181.022 92.9449 181.022 94.832Z"
            fill="#263238"
          />
          <path
            d="M192.027 88.5709C191.972 89.5949 191.677 90.5916 191.165 91.4802C190.653 92.3689 189.939 93.1244 189.081 93.6855C187.441 94.6379 186.118 93.8795 186.118 91.9219C186.175 90.8963 186.473 89.8986 186.987 89.0099C187.502 88.1211 188.22 87.3665 189.081 86.8073C190.704 85.8196 192.027 86.5956 192.027 88.5709Z"
            fill="#263238"
          />
          <path
            d="M236.471 66.2431L200.74 86.9132C199.329 87.7244 198.182 86.9132 198.182 84.9731C198.197 84.0131 198.435 83.0697 198.879 82.2183C199.323 81.367 199.96 80.6313 200.74 80.0702L236.542 59.4001C237.953 58.5888 239.099 59.4001 239.099 61.3401C239.077 62.3063 238.827 63.2536 238.371 64.1054C237.914 64.9572 237.264 65.6895 236.471 66.2431Z"
            fill="#263238"
          />
          <path
            d="M230.422 458.534C232.556 458.534 233.949 460.809 233.949 464.319C233.949 469.822 230.51 476.471 226.418 478.834L209.293 488.71C208.533 489.2 207.657 489.48 206.753 489.522C204.619 489.522 203.226 487.247 203.226 483.737C203.226 478.217 206.753 471.568 210.757 469.222L227.882 459.328C228.652 458.848 229.533 458.575 230.439 458.534M230.439 457.07C229.278 457.107 228.147 457.447 227.159 458.058L210.034 467.952C205.466 470.58 201.762 477.652 201.762 483.737C201.762 488.269 203.826 490.968 206.753 490.968C207.914 490.932 209.046 490.591 210.034 489.98L227.194 480.104C231.744 477.458 235.448 470.404 235.448 464.319C235.448 459.786 233.402 457.07 230.474 457.07H230.439Z"
            fill="#263238"
          />
          <path
            d="M135.801 190.511V569.698C135.801 576.576 138.341 581.179 142.186 582.696H142.292L158.676 591.673V577.087L156.912 183.932L139.611 175.114C137.252 179.914 135.952 185.165 135.801 190.511Z"
            fill="#E6E6E6"
          />
          <path
            d="M159.593 593.189L141.851 583.472C137.459 581.708 134.92 576.523 134.92 569.662V190.475C135.02 184.974 136.307 179.56 138.694 174.602L139.082 173.773L157.671 183.28V183.809L159.435 576.981L159.593 593.189ZM142.733 581.937L157.812 590.209V577.123L156.048 184.479L140.052 176.295C138.023 180.766 136.925 185.602 136.824 190.511V569.697C136.824 575.888 139.011 580.456 142.662 581.884L142.874 581.99L142.733 581.937Z"
            fill="#E6E6E6"
          />
          <path
            d="M139.487 175.096L156.789 183.914L341.991 76.2253L354.336 69.0296L337.246 59.4L336.753 59.1178C334.037 57.4776 330.474 57.5834 326.541 59.8585L151.233 161.057C146.024 164.482 141.939 169.365 139.487 175.096Z"
            fill="#E0E0E0"
          />
          <path
            d="M156.789 184.832C156.647 184.833 156.507 184.796 156.383 184.726L139.082 175.908C138.98 175.859 138.889 175.79 138.815 175.706C138.74 175.621 138.683 175.523 138.647 175.416C138.611 175.309 138.596 175.196 138.604 175.084C138.612 174.971 138.643 174.862 138.694 174.761C141.209 168.846 145.427 163.812 150.81 160.299L326.118 59.0827C330.174 56.7371 334.125 56.4725 337.229 58.3596L337.37 58.4478L337.723 58.6595L354.777 68.2714C354.913 68.3475 355.026 68.4573 355.107 68.5902C355.187 68.7231 355.231 68.8745 355.236 69.0298C355.238 69.1867 355.198 69.3413 355.121 69.4777C355.043 69.6141 354.931 69.7274 354.795 69.8058L157.265 184.744C157.117 184.815 156.953 184.846 156.789 184.832ZM140.651 174.691L156.771 182.945L352.538 69.0298L336.294 59.8588L336.153 59.7529C333.649 58.3067 330.386 58.6065 326.964 60.5818L151.657 161.798C146.83 164.955 143.011 169.429 140.651 174.691Z"
            fill="#E0E0E0"
          />
          <path
            d="M152.785 200.035V577.458C152.785 583.401 154.69 587.669 157.706 589.68L158.694 590.209C161.339 591.461 164.637 591.197 168.217 589.116L252.961 540.192L343.596 485.73C348.237 482.826 352.081 478.81 354.779 474.046C357.476 469.282 358.943 463.92 359.045 458.446V81.0227C359.045 75.2556 357.282 71.0933 354.425 69.0122C353.946 68.6444 353.418 68.3474 352.855 68.1304C351.325 67.588 349.689 67.4155 348.079 67.627C346.47 67.8385 344.933 68.428 343.596 69.3473L168.288 172.274C163.337 174.856 159.335 178.945 156.859 183.95C154.317 188.94 152.925 194.436 152.785 200.035Z"
            fill="white"
          />
          <path
            d="M343.084 484.954C314.76 501.85 286.447 518.757 258.146 535.677L207.882 565.747L184.954 579.504L174.919 585.535C171.833 587.387 168.535 590.033 165.131 591.214C159.469 593.19 154.373 588.657 154.231 583.066C154.231 582.167 154.231 581.303 154.231 580.368V224.514C154.231 215.043 154.231 205.555 154.231 196.084C154.165 191.6 155.297 187.179 157.511 183.278C159.724 179.378 162.94 176.139 166.824 173.897C170.916 171.481 175.025 169.1 179.17 166.701L236.841 132.892L305.183 92.8393C318.146 85.2556 331.074 77.6013 343.984 70.0528C348.005 67.7248 353.066 67.9541 355.871 72.1692C356.86 73.8465 357.327 75.7808 357.211 77.7247V458.552C357.388 463.812 356.177 469.026 353.701 473.67C351.224 478.313 347.569 482.223 343.102 485.007C342.132 485.606 343.014 487.141 343.984 486.541C348.681 483.633 352.538 479.548 355.174 474.692C357.809 469.836 359.132 464.376 359.01 458.852V104.797C359.01 95.573 359.01 86.349 359.01 77.1427C359.055 75.2962 358.597 73.4721 357.684 71.8662C356.772 70.2603 355.439 68.9331 353.83 68.0268C352.22 67.1205 350.394 66.6694 348.548 66.7219C346.701 66.7743 344.904 67.3283 343.349 68.3244C339.045 70.8112 334.777 73.3509 330.509 75.8553L271.286 110.652L202.326 151.075C190.14 158.218 177.9 165.29 165.748 172.504C161.668 174.903 158.294 178.337 155.968 182.459C153.642 186.582 152.447 191.245 152.503 195.978C152.503 199.153 152.503 202.327 152.503 205.502V581.549C152.503 582.167 152.503 582.766 152.503 583.313C152.522 584.89 152.909 586.441 153.634 587.842C154.359 589.243 155.401 590.456 156.677 591.383C157.954 592.309 159.429 592.925 160.985 593.181C162.542 593.436 164.137 593.325 165.642 592.855C168.976 591.726 172.115 589.239 175.113 587.423L185.342 581.285L208.27 567.564C241.615 547.576 274.989 527.623 308.393 507.705L344.072 486.418C344.936 485.906 344.054 484.372 343.084 484.954Z"
            fill="#EBEBEB"
          />
          <path
            d="M165.855 173.439L344.372 68.8184C345.758 68.0039 347.334 67.5701 348.941 67.5609C350.548 67.5517 352.129 67.9674 353.524 68.7659C354.918 69.5644 356.077 70.7173 356.883 72.1079C357.688 73.4984 358.112 75.0772 358.111 76.6843V93.5272L153.386 211.692V195.273C153.381 190.862 154.53 186.528 156.717 182.698C158.904 178.868 162.054 175.676 165.855 173.439Z"
            fill="#EBEBEB"
          />
          <path
            d="M288.488 265.185C306.591 233.83 306.591 199.94 288.488 189.488C270.386 179.037 241.036 195.982 222.933 227.337C204.83 258.691 204.83 292.582 222.933 303.033C241.035 313.485 270.385 296.54 288.488 265.185Z"
            fill="#EBEBEB"
          />
          <path
            opacity="0.5"
            d="M289.332 266.621C307.435 235.266 307.435 201.375 289.333 190.924C271.23 180.473 241.88 197.418 223.778 228.772C205.675 260.127 205.675 294.018 223.777 304.469C241.88 314.92 271.23 297.975 289.332 266.621Z"
            fill="#EBEBEB"
          />
          <path
            d="M247.406 246.472C246.854 246.472 246.325 246.252 245.934 245.862C245.544 245.472 245.325 244.942 245.325 244.39V230.687C245.477 227.436 246.405 224.268 248.032 221.448C249.658 218.629 251.935 216.239 254.672 214.479C255.781 213.566 257.141 213.012 258.572 212.893C260.003 212.774 261.437 213.094 262.681 213.811C263.925 214.528 264.921 215.608 265.535 216.906C266.149 218.204 266.353 219.658 266.119 221.075V234.796C266.119 235.348 265.899 235.877 265.509 236.268C265.119 236.658 264.589 236.877 264.037 236.877C263.485 236.877 262.956 236.658 262.566 236.268C262.176 235.877 261.956 235.348 261.956 234.796V221.075C262.232 220.386 262.248 219.62 262.002 218.92C261.757 218.219 261.265 217.632 260.62 217.266C259.974 216.9 259.217 216.781 258.49 216.93C257.763 217.079 257.115 217.486 256.665 218.077C254.564 219.477 252.816 221.343 251.555 223.531C250.295 225.718 249.557 228.167 249.399 230.687V244.39C249.399 244.927 249.192 245.444 248.821 245.832C248.45 246.22 247.943 246.449 247.406 246.472Z"
            fill="#37474F"
          />
          <path
            d="M272.52 225.96C272.042 225.762 271.522 225.687 271.007 225.743C270.493 225.798 270 225.982 269.575 226.278L241.85 242.292C240.633 243.059 239.622 244.113 238.905 245.361C237.802 247.164 237.194 249.226 237.141 251.339V275.343C237.081 276.016 237.173 276.694 237.411 277.326C237.649 277.958 238.027 278.528 238.517 278.994C238.664 279.107 238.824 279.202 238.993 279.276C239.466 279.451 239.973 279.51 240.473 279.449C240.974 279.387 241.452 279.207 241.868 278.923L269.522 262.909C270.967 261.878 272.149 260.522 272.973 258.951C273.797 257.379 274.24 255.636 274.266 253.861V229.858C274.371 229.11 274.262 228.348 273.954 227.658C273.645 226.969 273.148 226.38 272.52 225.96Z"
            fill="#37474F"
          />
          <path
            d="M258.941 250.969L261.621 258.658L252.221 264.073L254.567 254.584L254.902 253.244C253.315 253.244 252.221 252.062 252.221 249.893C252.233 249.023 252.382 248.16 252.662 247.336C253.394 245.044 254.896 243.075 256.912 241.762C259.505 240.263 261.621 241.48 261.621 244.478C261.49 246.871 260.537 249.145 258.923 250.916L258.941 250.969Z"
            fill="#455A64"
          />
          <path
            d="M254.496 254.584L254.831 253.244C253.244 253.244 252.151 252.062 252.151 249.893C252.162 249.023 252.311 248.16 252.591 247.336L258.87 250.969L261.551 258.658L254.496 254.584Z"
            fill="#37474F"
          />
          <path
            d="M324.196 335.042L187.336 414.001C181.675 417.264 177.089 413.79 177.089 406.259V385.536C177.089 377.988 181.675 369.222 187.336 365.959L324.196 287C329.84 283.737 334.425 287.194 334.425 294.743V315.466C334.337 322.997 329.751 331.762 324.196 335.042Z"
            fill="#EEA0DF"
          />
          <path
            d="M211.957 364.09H209.311V386.012H211.957V364.09Z"
            fill="#FAFAFA"
          />
          <path
            d="M220.719 370.246L201.647 381.207L202.97 383.508L222.042 372.547L220.719 370.246Z"
            fill="#FAFAFA"
          />
          <path
            d="M204.574 370.052L203.251 372.343L216.677 380.094L218 377.803L204.574 370.052Z"
            fill="#FAFAFA"
          />
          <path
            d="M217.953 361.434L204.523 384.802L206.825 386.125L220.255 362.756L217.953 361.434Z"
            fill="#FAFAFA"
          />
          <path
            d="M257.053 339.54H254.408V361.462H257.053V339.54Z"
            fill="#FAFAFA"
          />
          <path
            d="M264.533 343.916L245.548 354.877L246.871 357.168L265.856 346.207L264.533 343.916Z"
            fill="#FAFAFA"
          />
          <path
            d="M249.67 345.495L248.348 347.786L261.773 355.537L263.096 353.246L249.67 345.495Z"
            fill="#FAFAFA"
          />
          <path
            d="M262.955 336.687L249.525 360.056L251.826 361.379L265.257 338.01L262.955 336.687Z"
            fill="#FAFAFA"
          />
          <path
            d="M302.132 314.972H299.487V336.894H302.132V314.972Z"
            fill="#FAFAFA"
          />
          <path
            d="M311.28 320.926L292.207 331.887L293.53 334.189L312.603 323.228L311.28 320.926Z"
            fill="#FAFAFA"
          />
          <path
            d="M294.769 320.928L293.447 323.219L306.872 330.97L308.195 328.679L294.769 320.928Z"
            fill="#FAFAFA"
          />
          <path
            d="M306.384 313.618L292.954 336.88L295.245 338.203L308.675 314.941L306.384 313.618Z"
            fill="#FAFAFA"
          />
          <path
            d="M328.164 363.579C329.928 363.579 330.827 366.312 330.827 369.028V389.751C330.827 396.048 326.93 403.614 322.344 406.259L185.572 485.236C184.878 485.679 184.083 485.94 183.262 485.994C181.498 485.994 180.616 483.243 180.616 480.545V459.822C180.616 453.525 184.496 445.959 189.1 443.296L325.96 364.337C326.647 363.893 327.436 363.632 328.252 363.579M328.252 360.034C328.252 360.044 328.245 360.052 328.235 360.052C326.805 360.108 325.413 360.533 324.196 361.286L187.336 440.245C181.675 443.508 177.089 452.273 177.089 459.822V480.545C177.089 486.153 179.629 489.522 183.262 489.522C184.704 489.472 186.109 489.046 187.336 488.287L324.196 409.328C329.84 406.048 334.443 397.282 334.443 389.751V368.993C334.443 363.376 331.894 360.027 328.27 360.016C328.261 360.016 328.252 360.024 328.252 360.034Z"
            fill="url(#paint0_linear_1_18)"
          />
          <path
            d="M238.599 439.828C237.665 440.365 236.858 440.59 236.181 440.504C235.507 440.41 234.987 440.039 234.621 439.39C234.259 438.734 234.078 437.833 234.078 436.687C234.078 435.541 234.259 434.427 234.621 433.345C234.987 432.255 235.496 431.278 236.149 430.412C236.806 429.539 237.572 428.851 238.448 428.348C238.953 428.058 239.452 427.868 239.944 427.779C240.437 427.691 240.885 427.748 241.29 427.953C241.694 428.153 242.016 428.541 242.256 429.117C242.496 429.693 242.616 430.503 242.616 431.547V432.275L235.139 436.572V435.086L241.1 431.66C241.1 431.029 240.991 430.529 240.772 430.159C240.557 429.787 240.25 429.573 239.85 429.516C239.454 429.457 238.987 429.583 238.448 429.892C237.854 430.234 237.34 430.699 236.907 431.288C236.477 431.87 236.147 432.497 235.915 433.169C235.684 433.841 235.568 434.485 235.568 435.102V436.093C235.568 436.937 235.694 437.581 235.947 438.023C236.204 438.459 236.559 438.698 237.014 438.743C237.469 438.783 237.997 438.63 238.599 438.284C238.991 438.059 239.344 437.792 239.66 437.485C239.98 437.17 240.256 436.817 240.487 436.426C240.719 436.031 240.898 435.603 241.024 435.142L242.464 434.78C242.313 435.431 242.058 436.073 241.7 436.706C241.342 437.334 240.9 437.918 240.374 438.458C239.848 438.994 239.256 439.45 238.599 439.828ZM246.368 428.411V435.13L244.881 435.985V424.816L246.318 423.99V425.735L246.444 425.663C246.671 424.965 247.016 424.311 247.478 423.701C247.94 423.087 248.537 422.569 249.268 422.149C249.924 421.772 250.498 421.597 250.989 421.625C251.481 421.648 251.864 421.893 252.137 422.362C252.41 422.825 252.547 423.532 252.547 424.482V431.579L251.059 432.434V425.454C251.059 424.576 250.861 424.006 250.466 423.744C250.071 423.476 249.529 423.541 248.84 423.937C248.365 424.21 247.94 424.572 247.566 425.025C247.196 425.475 246.904 425.99 246.69 426.568C246.476 427.147 246.368 427.761 246.368 428.411ZM259.477 416.427V417.882L254.458 420.766V419.312L259.477 416.427ZM255.921 415.795L257.409 414.94V425.585C257.409 426.07 257.47 426.399 257.592 426.571C257.718 426.736 257.877 426.804 258.071 426.775C258.268 426.739 258.476 426.659 258.695 426.533C258.859 426.439 258.993 426.352 259.098 426.272C259.204 426.187 259.288 426.12 259.351 426.069L259.653 427.437C259.552 427.538 259.412 427.663 259.231 427.81C259.05 427.963 258.821 428.118 258.544 428.278C258.123 428.519 257.711 428.652 257.308 428.675C256.909 428.696 256.577 428.57 256.312 428.295C256.051 428.018 255.921 427.555 255.921 426.906V415.795ZM265.671 424.269C264.738 424.805 263.933 425.03 263.256 424.944C262.584 424.851 262.065 424.48 261.699 423.832C261.338 423.177 261.157 422.278 261.157 421.134C261.157 419.989 261.338 418.877 261.699 417.797C262.065 416.709 262.573 415.734 263.225 414.87C263.88 413.998 264.645 413.312 265.519 412.809C266.024 412.519 266.522 412.33 267.014 412.241C267.505 412.153 267.953 412.21 268.356 412.415C268.76 412.614 269.081 413.002 269.321 413.577C269.561 414.151 269.68 414.96 269.68 416.002V416.729L262.216 421.019V419.536L268.167 416.116C268.167 415.485 268.058 414.986 267.839 414.617C267.625 414.246 267.318 414.032 266.919 413.975C266.524 413.916 266.057 414.042 265.519 414.351C264.927 414.691 264.414 415.156 263.981 415.744C263.552 416.325 263.223 416.951 262.991 417.621C262.76 418.292 262.645 418.936 262.645 419.551V420.54C262.645 421.384 262.771 422.026 263.023 422.468C263.279 422.902 263.634 423.142 264.088 423.186C264.542 423.226 265.07 423.073 265.671 422.728C266.062 422.503 266.415 422.237 266.73 421.93C267.049 421.615 267.325 421.263 267.556 420.874C267.787 420.479 267.966 420.051 268.092 419.591L269.529 419.23C269.378 419.88 269.123 420.52 268.766 421.152C268.409 421.779 267.968 422.363 267.442 422.902C266.917 423.437 266.326 423.892 265.671 424.269ZM271.944 420.431V409.263L273.381 408.437V410.123L273.482 410.065C273.658 409.411 273.978 408.779 274.44 408.17C274.902 407.56 275.424 407.088 276.004 406.755C276.113 406.692 276.249 406.616 276.413 406.527C276.577 406.437 276.701 406.373 276.785 406.335V408.08C276.735 408.094 276.619 408.139 276.439 408.214C276.262 408.281 276.075 408.372 275.877 408.485C275.407 408.756 274.986 409.111 274.617 409.551C274.251 409.985 273.961 410.462 273.747 410.982C273.536 411.496 273.431 412.004 273.431 412.509V419.576L271.944 420.431Z"
            fill="#37474F"
          />
          <path
            d="M471.25 348.341C471.25 348.341 484.107 347.477 491.391 365.342C495.923 376.453 501.443 393.561 504.971 405.025C506.041 408.486 506.067 412.187 505.044 415.663C504.022 419.139 501.996 422.236 499.221 424.566L476.805 443.384L468.816 428.799C473.47 422.579 478.594 416.724 484.142 411.286L468.816 365.342L471.25 348.341Z"
            fill="#FFA8A7"
          />
          <path
            d="M477.176 402.909C477.176 402.909 497.599 405.607 502.696 389.857C502.696 389.857 493.878 366.806 489.927 359.152C485.976 351.498 477.723 345.925 471.25 348.341C464.777 350.757 477.176 402.909 477.176 402.909Z"
            fill="#ED2188"
          />
          <path
            opacity="0.4"
            d="M477.176 402.909C477.176 402.909 497.599 405.607 502.696 389.857C502.696 389.857 493.878 366.806 489.927 359.152C485.976 351.498 477.723 345.925 471.25 348.341C464.777 350.757 477.176 402.909 477.176 402.909Z"
            fill="#F7D4F0"
          />
          <path
            d="M463.525 609.715C463.525 609.715 453.825 601.391 450.05 601.003C446.276 600.615 439.751 607.087 445.271 618.286C446.805 621.408 453.049 624.777 456.929 630.756C460.809 636.734 464.336 641.232 470.315 640.403C476.294 639.574 477.07 636.205 476.682 632.308C476.177 628.742 475.465 625.208 474.548 621.726L463.525 609.715Z"
            fill="#37474F"
          />
          <path
            d="M470.579 638.622C464.424 639.468 460.809 634.83 456.787 628.675C452.766 622.519 446.347 619.027 444.759 615.818C444.121 614.527 443.601 613.181 443.207 611.796C443.498 614.06 444.178 616.255 445.218 618.287C446.752 621.408 452.996 624.777 456.876 630.756C460.756 636.735 464.283 641.232 470.262 640.403C474.847 639.786 476.364 637.652 476.646 634.936C475.87 636.77 474.195 638.128 470.579 638.622Z"
            fill="#263238"
          />
          <path
            d="M458.375 620.403C458.22 620.398 458.069 620.355 457.934 620.28C457.825 620.222 457.728 620.144 457.649 620.048C457.571 619.953 457.511 619.844 457.475 619.726C457.439 619.607 457.427 619.483 457.439 619.361C457.451 619.238 457.488 619.118 457.546 619.01C458.521 617.275 459.828 615.75 461.392 614.522C462.957 613.293 464.748 612.385 466.664 611.849C466.786 611.821 466.912 611.817 467.035 611.838C467.158 611.859 467.276 611.905 467.381 611.972C467.486 612.04 467.577 612.128 467.648 612.231C467.719 612.334 467.768 612.45 467.793 612.572C467.821 612.692 467.826 612.816 467.805 612.937C467.785 613.058 467.741 613.173 467.675 613.277C467.609 613.381 467.523 613.47 467.422 613.54C467.322 613.61 467.208 613.659 467.087 613.683C463.757 614.659 460.933 616.883 459.204 619.892C459.124 620.044 459.006 620.171 458.86 620.261C458.714 620.351 458.546 620.4 458.375 620.403Z"
            fill="#EBEBEB"
          />
          <path
            d="M454.706 617.052C454.553 617.051 454.402 617.014 454.265 616.946C454.156 616.888 454.059 616.81 453.981 616.715C453.902 616.62 453.843 616.51 453.807 616.392C453.771 616.274 453.758 616.15 453.771 616.027C453.783 615.904 453.819 615.785 453.877 615.676C454.854 613.94 456.164 612.414 457.731 611.185C459.299 609.956 461.094 609.049 463.013 608.516C463.134 608.487 463.259 608.483 463.381 608.503C463.503 608.523 463.62 608.567 463.725 608.632C463.83 608.698 463.921 608.784 463.993 608.885C464.064 608.986 464.115 609.1 464.142 609.221C464.195 609.467 464.148 609.723 464.013 609.934C463.877 610.146 463.664 610.295 463.419 610.35C460.092 611.332 457.27 613.554 455.535 616.558C455.457 616.709 455.337 616.835 455.191 616.923C455.045 617.01 454.877 617.055 454.706 617.052Z"
            fill="#EBEBEB"
          />
          <path
            d="M450.597 613.719C450.441 613.72 450.288 613.677 450.156 613.595C450.047 613.538 449.95 613.459 449.871 613.364C449.793 613.269 449.733 613.159 449.697 613.041C449.661 612.923 449.649 612.799 449.661 612.676C449.673 612.553 449.71 612.434 449.768 612.325C450.746 610.593 452.057 609.07 453.624 607.844C455.192 606.619 456.986 605.714 458.904 605.183C459.024 605.154 459.149 605.149 459.271 605.17C459.394 605.19 459.511 605.234 459.616 605.299C459.721 605.365 459.812 605.451 459.883 605.552C459.955 605.653 460.005 605.767 460.032 605.888C460.085 606.134 460.039 606.39 459.903 606.601C459.768 606.813 459.554 606.962 459.309 607.017C455.983 607.999 453.161 610.221 451.426 613.225C451.344 613.374 451.224 613.498 451.079 613.585C450.933 613.671 450.767 613.718 450.597 613.719Z"
            fill="#EBEBEB"
          />
          <path
            d="M411.903 636.964C411.903 636.964 398.905 632.749 395.025 633.913C391.144 635.077 387.353 644.142 397.405 652.943C400.192 655.376 407.741 656.153 414.054 660.456C420.368 664.759 425.659 667.74 431.232 664.477C436.806 661.214 436.329 657.422 435.342 653.401C434.09 648.216 433.067 644.442 433.067 644.442L411.903 636.964Z"
            fill="#37474F"
          />
          <path
            d="M430.809 662.59C425.077 665.941 419.592 662.854 413.173 658.427C406.753 654.001 398.887 653.136 396.012 650.685C394.844 649.678 393.775 648.562 392.82 647.352C394.043 649.466 395.617 651.357 397.476 652.942C400.262 655.376 407.811 656.152 414.125 660.456C420.439 664.759 425.73 667.74 431.303 664.477C435.553 661.99 436.188 659.186 435.359 656.452C435.306 658.586 434.107 660.65 430.809 662.59Z"
            fill="#263238"
          />
          <path
            d="M408.851 648.974H408.763C408.639 648.965 408.518 648.932 408.408 648.875C408.297 648.818 408.2 648.74 408.121 648.644C408.041 648.548 407.982 648.438 407.947 648.319C407.912 648.199 407.902 648.074 407.916 647.951C408.165 645.847 408.827 643.814 409.865 641.967C410.904 640.121 412.297 638.498 413.966 637.193C414.064 637.119 414.177 637.065 414.297 637.036C414.417 637.006 414.541 637.001 414.663 637.021C414.785 637.041 414.902 637.085 415.006 637.151C415.111 637.217 415.201 637.303 415.271 637.405C415.417 637.608 415.476 637.862 415.437 638.109C415.397 638.357 415.262 638.579 415.059 638.727C412.158 641.068 410.264 644.433 409.768 648.128C409.746 648.357 409.641 648.57 409.472 648.726C409.302 648.883 409.081 648.971 408.851 648.974Z"
            fill="#EBEBEB"
          />
          <path
            d="M414.142 650.72C413.895 650.693 413.669 650.572 413.511 650.381C413.353 650.19 413.275 649.944 413.295 649.697C413.813 645.449 415.987 641.576 419.345 638.921C419.551 638.777 419.805 638.72 420.053 638.763C420.301 638.806 420.522 638.945 420.667 639.151C420.738 639.251 420.789 639.365 420.816 639.485C420.842 639.605 420.845 639.73 420.824 639.851C420.803 639.972 420.758 640.088 420.691 640.192C420.625 640.296 420.539 640.385 420.438 640.456C417.524 642.794 415.628 646.169 415.147 649.874C415.125 650.119 415.007 650.345 414.818 650.503C414.63 650.662 414.387 650.74 414.142 650.72Z"
            fill="#EBEBEB"
          />
          <path
            d="M403.843 647.157H403.754C403.508 647.131 403.282 647.009 403.124 646.818C402.965 646.627 402.888 646.382 402.908 646.134C403.417 641.883 405.592 638.007 408.957 635.358C409.161 635.213 409.413 635.155 409.66 635.197C409.906 635.238 410.126 635.375 410.271 635.579C410.416 635.782 410.474 636.035 410.433 636.282C410.392 636.528 410.254 636.748 410.051 636.893C407.147 639.239 405.253 642.61 404.76 646.311C404.742 646.542 404.638 646.757 404.467 646.914C404.297 647.071 404.074 647.158 403.843 647.157Z"
            fill="#EBEBEB"
          />
          <path
            d="M475.165 612.184C476.329 599.309 478.851 579.133 479.909 569.698C481.325 557.772 480.981 545.703 478.886 533.878C478.338 531.091 478.201 528.239 478.481 525.412C481.021 499.768 482.696 458.199 481.285 449.063L445.289 456.682C445.289 456.682 449.698 515.007 451.62 534.407C453.543 553.807 460.809 612.361 460.809 612.361C462.958 613.736 465.462 614.452 468.013 614.42C470.564 614.389 473.051 613.612 475.165 612.184Z"
            fill="#455A64"
          />
          <path
            d="M469.98 625.429C470.972 625.194 471.899 624.739 472.693 624.098C473.486 623.457 474.126 622.646 474.565 621.726C474.565 619.697 474.794 616.311 475.165 612.184C473.05 613.612 470.564 614.389 468.013 614.42C465.462 614.452 462.958 613.736 460.809 612.361L462.078 623.19C463.137 624.142 464.399 624.839 465.769 625.228C467.139 625.616 468.579 625.685 469.98 625.429Z"
            fill="#FFA8A7"
          />
          <path
            d="M434.671 634.812C436.135 615.324 438.975 577.564 439.345 571.62C439.621 565.063 439.207 558.496 438.11 552.026C437.475 548.527 437.475 544.943 438.11 541.444L453.983 453.666L410.474 453.031L407.634 544.989C407.595 546.166 407.642 547.345 407.775 548.516L416.999 634.23C416.999 634.23 425.994 641.814 434.671 634.812Z"
            fill="#455A64"
          />
          <path
            d="M427.405 650.914C428.757 650.755 430.048 650.262 431.163 649.48C432.277 648.698 433.18 647.652 433.79 646.435L434.671 634.812C425.994 641.867 417.035 634.265 417.035 634.265L418.411 647.122C418.411 647.122 420.421 651.567 427.405 650.914Z"
            fill="#FFA8A7"
          />
          <path
            d="M430.579 354.196L420.315 357.723L409.274 409.945L409.821 456.241C409.821 456.241 417.669 462.467 448.498 462.467C465.782 462.467 477.034 455.959 481.284 449.028L478.515 421.056C478.515 421.056 481.284 393.49 481.284 379.857C481.284 366.224 481.902 355.06 471.249 348.305L461.761 349.081L430.579 354.196Z"
            fill="#EC2089"
          />
          <path
            d="M419.434 309.311L414.301 319.487C414.227 319.635 414.186 319.797 414.18 319.962C414.174 320.127 414.204 320.291 414.268 320.444C414.331 320.596 414.427 320.733 414.549 320.845C414.67 320.957 414.814 321.041 414.971 321.092L421.056 323.12L419.434 309.311Z"
            fill="#F28F8F"
          />
          <path
            d="M426.488 292.256C426.488 292.256 418.693 296.454 418.693 320.475C418.693 333.72 419.61 342.168 426.488 341.639C433.366 341.11 453.19 338.517 453.19 338.517V292.256H426.488Z"
            fill="#FFA8A7"
          />
          <path
            d="M426.488 341.727C428.904 341.533 432.925 341.092 437.07 340.598V338.146C433.287 339.76 429.335 340.943 425.288 341.674C425.686 341.721 426.087 341.739 426.488 341.727Z"
            fill="#F28F8F"
          />
          <path
            d="M436.011 337.124V352.238H456.699V331.004L436.011 337.124Z"
            fill="#FFA8A7"
          />
          <path
            d="M436.011 346.489C436.011 346.489 443.436 349.117 449.415 348.094C455.394 347.071 456.699 343.402 456.699 343.402C456.699 343.402 458.639 343.261 461.761 349.117C460.549 351.314 458.811 353.176 456.703 354.537C454.594 355.897 452.181 356.713 449.68 356.912C443.193 357.338 436.689 356.413 430.579 354.196C430.579 354.196 433.542 345.73 436.011 346.489Z"
            fill="#ED2188"
          />
          <path
            opacity="0.4"
            d="M436.011 346.489C436.011 346.489 443.436 349.117 449.415 348.094C455.394 347.071 456.699 343.402 456.699 343.402C456.699 343.402 458.639 343.261 461.761 349.117C460.549 351.314 458.811 353.176 456.703 354.537C454.594 355.897 452.181 356.713 449.68 356.912C443.193 357.338 436.689 356.413 430.579 354.196C430.579 354.196 433.542 345.73 436.011 346.489Z"
            fill="#F7D4F0"
          />
          <path
            d="M389.857 391.339L384.301 399.893C384.301 399.893 370.809 393.878 361.374 390.228C355.883 388.179 350.77 385.235 346.241 381.515C346.578 377.84 347.168 374.192 348.005 370.598C349.098 366.894 349.469 363.79 346.241 365.431C343.014 367.071 340.756 373.455 340.58 374.249C340.58 374.249 321.621 355.184 319.257 355.607C316.894 356.03 317.494 358.887 322.538 364.76L327.635 370.651C327.635 370.651 316.012 377.335 317.899 384.637C319.786 391.938 335.113 395.219 335.113 395.219C335.113 395.219 379.945 429.681 389.892 423.437C399.839 417.194 413.878 399.363 413.878 399.363L389.857 391.339Z"
            fill="#FFA8A7"
          />
          <path
            d="M424.389 356.365C424.389 356.365 432.66 363.173 427.281 377.247C421.902 391.321 408.11 408.323 408.11 408.323C408.11 408.323 393.683 403.825 388.11 392.168L406.311 363.702C407.602 361.674 409.353 359.978 411.421 358.753C413.489 357.527 415.817 356.806 418.216 356.647C419.944 356.524 421.972 356.436 424.389 356.365Z"
            fill="#ED2188"
          />
          <path
            opacity="0.4"
            d="M424.389 356.365C424.389 356.365 432.66 363.173 427.281 377.247C421.902 391.321 408.11 408.323 408.11 408.323C408.11 408.323 393.683 403.825 388.11 392.168L406.311 363.702C407.602 361.674 409.353 359.978 411.421 358.753C413.489 357.527 415.817 356.806 418.216 356.647C419.944 356.524 421.972 356.436 424.389 356.365Z"
            fill="#F7D4F0"
          />
          <path
            d="M423.578 278.059C423.578 278.059 415.394 276.983 413.313 282.609C412.008 286.136 416.17 288.852 416.17 288.852C416.17 288.852 410.879 293.808 418.763 295.343C418.627 296.189 418.703 297.055 418.984 297.865C419.265 298.674 419.742 299.402 420.372 299.982C421.003 300.562 421.768 300.977 422.598 301.189C423.428 301.401 424.298 301.404 425.13 301.198C425.13 301.198 424.213 306.489 431.108 308.411C431.108 308.411 427.581 317.688 434.177 317.812H440.297L437.828 324.955C437.828 324.955 442.413 336.013 456.699 336.013C458.266 332.659 460.033 329.402 461.99 326.26C463.754 324.055 472.572 312.75 472.572 303.791C472.572 294.831 469.133 289.523 464.353 288.341C462.837 285.051 460.476 282.221 457.51 280.14C452.696 276.895 442.572 274.002 436.858 277.988C436.858 277.988 431.796 271.339 428.287 271.339C424.777 271.339 423.578 274.955 423.578 278.059Z"
            fill="#263238"
          />
          <path
            d="M434.177 317.847C434.177 317.847 433.578 308.447 441.496 308.447C449.415 308.447 447.546 324.99 437.828 324.99L434.177 317.847Z"
            fill="#FFA8A7"
          />
        </g>
        <defs>
          <linearGradient
            id="paint0_linear_1_18"
            x1="179"
            y1="475"
            x2="336.5"
            y2="380"
            gradientUnits="userSpaceOnUse"
          >
            <stop stopColor="#B980F6" />
            <stop offset="0.55123" stopColor="#F989B7" />
            <stop offset="1" stopColor="#FC9D95" />
          </linearGradient>
          <clipPath id="clip0_1_18">
            <rect width="736.575" height="744" fill="white" />
          </clipPath>
        </defs>
      </svg>